<mxfile host="app.diagrams.net" modified="2022-01-24T10:29:21.147Z" agent="5.0 (Windows NT 10.0; Win64; x64) AppleWebKit/537.36 (KHTML, like Gecko) Chrome/97.0.4692.71 Safari/537.36" etag="GCrmfW4vaVdgjCt_fWTu" version="16.2.7" type="github">
  <diagram id="xkXnQbONOZUrhMmhPOFe" name="第 1 页">
    <mxGraphModel dx="1422" dy="2008" grid="1" gridSize="10" guides="1" tooltips="1" connect="1" arrows="1" fold="1" page="1" pageScale="1" pageWidth="827" pageHeight="1169" math="0" shadow="0">
      <root>
        <mxCell id="0" />
        <mxCell id="1" parent="0" />
        <mxCell id="fgYCP7O1cczUKFr2x7Ze-392" value="公共模块" style="swimlane;align=left;spacingLeft=20;container=1;" parent="1" vertex="1">
          <mxGeometry x="30" y="-930" width="1510" height="1480" as="geometry" />
        </mxCell>
        <mxCell id="fgYCP7O1cczUKFr2x7Ze-508" value="表位置分组" style="rounded=0;whiteSpace=wrap;html=1;" parent="fgYCP7O1cczUKFr2x7Ze-392" vertex="1">
          <mxGeometry x="150" y="189" width="120" height="50" as="geometry" />
        </mxCell>
        <mxCell id="fgYCP7O1cczUKFr2x7Ze-461" value="表位置分组项" style="rounded=0;whiteSpace=wrap;html=1;" parent="fgYCP7O1cczUKFr2x7Ze-392" vertex="1">
          <mxGeometry x="460" y="189" width="120" height="50" as="geometry" />
        </mxCell>
        <mxCell id="fgYCP7O1cczUKFr2x7Ze-451" value="名称" style="ellipse;whiteSpace=wrap;html=1;" parent="fgYCP7O1cczUKFr2x7Ze-392" vertex="1">
          <mxGeometry x="50" y="109" width="120" height="40" as="geometry" />
        </mxCell>
        <mxCell id="fgYCP7O1cczUKFr2x7Ze-453" value="" style="endArrow=none;html=1;rounded=0;exitX=0.5;exitY=0;exitDx=0;exitDy=0;entryX=0.5;entryY=1;entryDx=0;entryDy=0;" parent="fgYCP7O1cczUKFr2x7Ze-392" source="fgYCP7O1cczUKFr2x7Ze-508" target="fgYCP7O1cczUKFr2x7Ze-451" edge="1">
          <mxGeometry width="50" height="50" relative="1" as="geometry">
            <mxPoint x="200" y="-280" as="sourcePoint" />
            <mxPoint x="280" y="-185" as="targetPoint" />
          </mxGeometry>
        </mxCell>
        <mxCell id="fgYCP7O1cczUKFr2x7Ze-459" value="类别&lt;br&gt;(一般分组、总量分组)" style="ellipse;whiteSpace=wrap;html=1;" parent="fgYCP7O1cczUKFr2x7Ze-392" vertex="1">
          <mxGeometry x="110" y="59" width="140" height="40" as="geometry" />
        </mxCell>
        <mxCell id="fgYCP7O1cczUKFr2x7Ze-460" value="" style="endArrow=none;html=1;rounded=0;exitX=0.5;exitY=0;exitDx=0;exitDy=0;entryX=0.5;entryY=1;entryDx=0;entryDy=0;" parent="fgYCP7O1cczUKFr2x7Ze-392" source="fgYCP7O1cczUKFr2x7Ze-508" target="fgYCP7O1cczUKFr2x7Ze-459" edge="1">
          <mxGeometry width="50" height="50" relative="1" as="geometry">
            <mxPoint x="200" y="165" as="sourcePoint" />
            <mxPoint x="280" y="150" as="targetPoint" />
          </mxGeometry>
        </mxCell>
        <mxCell id="fgYCP7O1cczUKFr2x7Ze-452" value="位置类型(电表位置、水表位置、气表位置)" style="ellipse;whiteSpace=wrap;html=1;" parent="fgYCP7O1cczUKFr2x7Ze-392" vertex="1">
          <mxGeometry x="244" y="79" width="170" height="40" as="geometry" />
        </mxCell>
        <mxCell id="fgYCP7O1cczUKFr2x7Ze-454" value="" style="endArrow=none;html=1;rounded=0;entryX=0.5;entryY=1;entryDx=0;entryDy=0;exitX=0.5;exitY=0;exitDx=0;exitDy=0;" parent="fgYCP7O1cczUKFr2x7Ze-392" source="fgYCP7O1cczUKFr2x7Ze-508" target="fgYCP7O1cczUKFr2x7Ze-452" edge="1">
          <mxGeometry width="50" height="50" relative="1" as="geometry">
            <mxPoint x="130" y="159" as="sourcePoint" />
            <mxPoint x="280" y="70" as="targetPoint" />
          </mxGeometry>
        </mxCell>
        <mxCell id="fgYCP7O1cczUKFr2x7Ze-466" value="" style="endArrow=none;html=1;rounded=0;exitX=1;exitY=0.5;exitDx=0;exitDy=0;entryX=0;entryY=0.5;entryDx=0;entryDy=0;" parent="fgYCP7O1cczUKFr2x7Ze-392" source="fgYCP7O1cczUKFr2x7Ze-461" target="-1BbnuGMBv0PjYFlIGcD-8" edge="1">
          <mxGeometry width="50" height="50" relative="1" as="geometry">
            <mxPoint x="760" y="115" as="sourcePoint" />
            <mxPoint x="820" y="65" as="targetPoint" />
          </mxGeometry>
        </mxCell>
        <mxCell id="fgYCP7O1cczUKFr2x7Ze-464" value="比例" style="ellipse;whiteSpace=wrap;html=1;" parent="fgYCP7O1cczUKFr2x7Ze-392" vertex="1">
          <mxGeometry x="695" y="249" width="120" height="40" as="geometry" />
        </mxCell>
        <mxCell id="fgYCP7O1cczUKFr2x7Ze-467" value="" style="endArrow=none;html=1;rounded=0;exitX=1;exitY=0.5;exitDx=0;exitDy=0;entryX=0;entryY=0.5;entryDx=0;entryDy=0;" parent="fgYCP7O1cczUKFr2x7Ze-392" source="fgYCP7O1cczUKFr2x7Ze-461" target="fgYCP7O1cczUKFr2x7Ze-464" edge="1">
          <mxGeometry width="50" height="50" relative="1" as="geometry">
            <mxPoint x="760" y="115" as="sourcePoint" />
            <mxPoint x="840" y="145" as="targetPoint" />
          </mxGeometry>
        </mxCell>
        <mxCell id="fgYCP7O1cczUKFr2x7Ze-468" value="计费分组" style="whiteSpace=wrap;html=1;align=center;rounded=0;sketch=0;fillColor=none;" parent="fgYCP7O1cczUKFr2x7Ze-392" vertex="1">
          <mxGeometry x="130" y="760" width="100" height="50" as="geometry" />
        </mxCell>
        <mxCell id="fgYCP7O1cczUKFr2x7Ze-481" value="计费规则" style="whiteSpace=wrap;html=1;align=center;rounded=0;sketch=0;fillColor=none;" parent="fgYCP7O1cczUKFr2x7Ze-392" vertex="1">
          <mxGeometry x="480" y="755" width="100" height="50" as="geometry" />
        </mxCell>
        <mxCell id="fgYCP7O1cczUKFr2x7Ze-608" value="基础单价" style="whiteSpace=wrap;html=1;align=center;rounded=0;sketch=0;fillColor=none;" parent="fgYCP7O1cczUKFr2x7Ze-392" vertex="1">
          <mxGeometry x="105" y="1090" width="100" height="50" as="geometry" />
        </mxCell>
        <mxCell id="fgYCP7O1cczUKFr2x7Ze-609" value="价格" style="ellipse;whiteSpace=wrap;html=1;align=center;fontStyle=4;rounded=0;sketch=0;fillColor=none;" parent="fgYCP7O1cczUKFr2x7Ze-392" vertex="1">
          <mxGeometry x="250" y="965" width="100" height="30" as="geometry" />
        </mxCell>
        <mxCell id="fgYCP7O1cczUKFr2x7Ze-611" style="rounded=0;orthogonalLoop=1;jettySize=auto;html=1;exitX=0.5;exitY=0;exitDx=0;exitDy=0;strokeColor=default;endArrow=none;endFill=0;entryX=0;entryY=0.5;entryDx=0;entryDy=0;" parent="fgYCP7O1cczUKFr2x7Ze-392" source="fgYCP7O1cczUKFr2x7Ze-608" target="fgYCP7O1cczUKFr2x7Ze-609" edge="1">
          <mxGeometry relative="1" as="geometry">
            <mxPoint x="240" y="-316" as="sourcePoint" />
            <mxPoint x="360" y="-271" as="targetPoint" />
          </mxGeometry>
        </mxCell>
        <mxCell id="fgYCP7O1cczUKFr2x7Ze-613" value="类别(电表、水表)" style="ellipse;whiteSpace=wrap;html=1;" parent="fgYCP7O1cczUKFr2x7Ze-392" vertex="1">
          <mxGeometry x="70" y="960" width="150" height="40" as="geometry" />
        </mxCell>
        <mxCell id="fgYCP7O1cczUKFr2x7Ze-614" style="rounded=0;orthogonalLoop=1;jettySize=auto;html=1;exitX=0.5;exitY=0;exitDx=0;exitDy=0;strokeColor=default;endArrow=none;endFill=0;" parent="fgYCP7O1cczUKFr2x7Ze-392" source="fgYCP7O1cczUKFr2x7Ze-608" target="fgYCP7O1cczUKFr2x7Ze-613" edge="1">
          <mxGeometry relative="1" as="geometry">
            <mxPoint x="180" y="1119" as="sourcePoint" />
            <mxPoint x="320" y="1124" as="targetPoint" />
          </mxGeometry>
        </mxCell>
        <mxCell id="fgYCP7O1cczUKFr2x7Ze-488" value="基础单价百分比" style="ellipse;whiteSpace=wrap;html=1;align=center;fontStyle=4;rounded=0;sketch=0;fillColor=none;" parent="fgYCP7O1cczUKFr2x7Ze-392" vertex="1">
          <mxGeometry x="692" y="670" width="100" height="40" as="geometry" />
        </mxCell>
        <mxCell id="fgYCP7O1cczUKFr2x7Ze-489" style="rounded=0;orthogonalLoop=1;jettySize=auto;html=1;exitX=0.63;exitY=0;exitDx=0;exitDy=0;strokeColor=default;endArrow=none;endFill=0;entryX=0;entryY=0.5;entryDx=0;entryDy=0;exitPerimeter=0;" parent="fgYCP7O1cczUKFr2x7Ze-392" source="fgYCP7O1cczUKFr2x7Ze-481" target="fgYCP7O1cczUKFr2x7Ze-488" edge="1">
          <mxGeometry relative="1" as="geometry">
            <mxPoint x="690" y="-684" as="sourcePoint" />
            <mxPoint x="794" y="-741" as="targetPoint" />
          </mxGeometry>
        </mxCell>
        <mxCell id="fgYCP7O1cczUKFr2x7Ze-501" value="单价" style="ellipse;whiteSpace=wrap;html=1;align=center;fontStyle=4;rounded=0;sketch=0;fillColor=none;" parent="fgYCP7O1cczUKFr2x7Ze-392" vertex="1">
          <mxGeometry x="700" y="720" width="100" height="40" as="geometry" />
        </mxCell>
        <mxCell id="fgYCP7O1cczUKFr2x7Ze-502" style="rounded=0;orthogonalLoop=1;jettySize=auto;html=1;strokeColor=default;endArrow=none;endFill=0;entryX=0;entryY=0.5;entryDx=0;entryDy=0;" parent="fgYCP7O1cczUKFr2x7Ze-392" target="fgYCP7O1cczUKFr2x7Ze-501" edge="1">
          <mxGeometry relative="1" as="geometry">
            <mxPoint x="580" y="780" as="sourcePoint" />
            <mxPoint x="824" y="781" as="targetPoint" />
          </mxGeometry>
        </mxCell>
        <mxCell id="fgYCP7O1cczUKFr2x7Ze-462" value="类型&lt;br&gt;（&lt;span&gt;总数来源、&lt;/span&gt;&lt;span&gt;需排除项、&lt;/span&gt;&lt;span&gt;需分摊项&lt;/span&gt;）" style="ellipse;whiteSpace=wrap;html=1;" parent="fgYCP7O1cczUKFr2x7Ze-392" vertex="1">
          <mxGeometry x="680" y="139" width="170" height="50" as="geometry" />
        </mxCell>
        <mxCell id="fgYCP7O1cczUKFr2x7Ze-463" value="" style="endArrow=none;html=1;rounded=0;exitX=1;exitY=0.5;exitDx=0;exitDy=0;entryX=0;entryY=0.5;entryDx=0;entryDy=0;" parent="fgYCP7O1cczUKFr2x7Ze-392" source="fgYCP7O1cczUKFr2x7Ze-461" target="fgYCP7O1cczUKFr2x7Ze-462" edge="1">
          <mxGeometry width="50" height="50" relative="1" as="geometry">
            <mxPoint x="720" y="-95" as="sourcePoint" />
            <mxPoint x="800" y="-190" as="targetPoint" />
          </mxGeometry>
        </mxCell>
        <mxCell id="fgYCP7O1cczUKFr2x7Ze-497" value="系统编码" style="ellipse;whiteSpace=wrap;html=1;" parent="fgYCP7O1cczUKFr2x7Ze-392" vertex="1">
          <mxGeometry x="645" y="610" width="150" height="40" as="geometry" />
        </mxCell>
        <mxCell id="fgYCP7O1cczUKFr2x7Ze-498" style="rounded=0;orthogonalLoop=1;jettySize=auto;html=1;exitX=0.57;exitY=0;exitDx=0;exitDy=0;strokeColor=default;endArrow=none;endFill=0;entryX=0;entryY=0.5;entryDx=0;entryDy=0;exitPerimeter=0;" parent="fgYCP7O1cczUKFr2x7Ze-392" source="fgYCP7O1cczUKFr2x7Ze-481" target="fgYCP7O1cczUKFr2x7Ze-497" edge="1">
          <mxGeometry relative="1" as="geometry">
            <mxPoint x="690" y="774.5" as="sourcePoint" />
            <mxPoint x="760" y="619" as="targetPoint" />
          </mxGeometry>
        </mxCell>
        <mxCell id="fgYCP7O1cczUKFr2x7Ze-587" value="统计月规则" style="whiteSpace=wrap;html=1;align=center;rounded=0;sketch=0;fillColor=none;" parent="fgYCP7O1cczUKFr2x7Ze-392" vertex="1">
          <mxGeometry x="70" y="1290" width="100" height="50" as="geometry" />
        </mxCell>
        <mxCell id="fgYCP7O1cczUKFr2x7Ze-594" value="类别(电表、水表、气表)" style="ellipse;whiteSpace=wrap;html=1;" parent="fgYCP7O1cczUKFr2x7Ze-392" vertex="1">
          <mxGeometry x="250" y="1210" width="150" height="40" as="geometry" />
        </mxCell>
        <mxCell id="fgYCP7O1cczUKFr2x7Ze-595" style="rounded=0;orthogonalLoop=1;jettySize=auto;html=1;entryX=0;entryY=0.5;entryDx=0;entryDy=0;strokeColor=default;endArrow=none;endFill=0;exitX=1;exitY=0.5;exitDx=0;exitDy=0;" parent="fgYCP7O1cczUKFr2x7Ze-392" target="fgYCP7O1cczUKFr2x7Ze-594" edge="1" source="fgYCP7O1cczUKFr2x7Ze-587">
          <mxGeometry relative="1" as="geometry">
            <mxPoint x="120" y="1365" as="sourcePoint" />
            <mxPoint x="235" y="876" as="targetPoint" />
          </mxGeometry>
        </mxCell>
        <mxCell id="fgYCP7O1cczUKFr2x7Ze-589" value="分类（自然月、自定义）" style="ellipse;whiteSpace=wrap;html=1;align=center;fontStyle=0;rounded=0;sketch=0;fillColor=none;" parent="fgYCP7O1cczUKFr2x7Ze-392" vertex="1">
          <mxGeometry x="254" y="1270" width="150" height="40" as="geometry" />
        </mxCell>
        <mxCell id="fgYCP7O1cczUKFr2x7Ze-591" style="rounded=0;orthogonalLoop=1;jettySize=auto;html=1;entryX=0;entryY=0.5;entryDx=0;entryDy=0;strokeColor=default;endArrow=none;endFill=0;exitX=1;exitY=0.5;exitDx=0;exitDy=0;" parent="fgYCP7O1cczUKFr2x7Ze-392" source="fgYCP7O1cczUKFr2x7Ze-587" target="fgYCP7O1cczUKFr2x7Ze-589" edge="1">
          <mxGeometry relative="1" as="geometry">
            <mxPoint x="50" y="2305" as="sourcePoint" />
            <mxPoint x="160" y="2230" as="targetPoint" />
          </mxGeometry>
        </mxCell>
        <mxCell id="fgYCP7O1cczUKFr2x7Ze-588" value="月开始时间" style="ellipse;whiteSpace=wrap;html=1;align=center;fontStyle=0;rounded=0;sketch=0;fillColor=none;" parent="fgYCP7O1cczUKFr2x7Ze-392" vertex="1">
          <mxGeometry x="260" y="1320" width="100" height="40" as="geometry" />
        </mxCell>
        <mxCell id="fgYCP7O1cczUKFr2x7Ze-592" style="rounded=0;orthogonalLoop=1;jettySize=auto;html=1;entryX=0;entryY=0.5;entryDx=0;entryDy=0;strokeColor=default;endArrow=none;endFill=0;exitX=1;exitY=0.5;exitDx=0;exitDy=0;" parent="fgYCP7O1cczUKFr2x7Ze-392" source="fgYCP7O1cczUKFr2x7Ze-587" target="fgYCP7O1cczUKFr2x7Ze-588" edge="1">
          <mxGeometry relative="1" as="geometry">
            <mxPoint x="50" y="2305" as="sourcePoint" />
            <mxPoint x="160" y="2280" as="targetPoint" />
          </mxGeometry>
        </mxCell>
        <mxCell id="fgYCP7O1cczUKFr2x7Ze-590" value="月结束时间" style="ellipse;whiteSpace=wrap;html=1;align=center;fontStyle=0;rounded=0;sketch=0;fillColor=none;" parent="fgYCP7O1cczUKFr2x7Ze-392" vertex="1">
          <mxGeometry x="275" y="1380" width="100" height="40" as="geometry" />
        </mxCell>
        <mxCell id="fgYCP7O1cczUKFr2x7Ze-593" style="rounded=0;orthogonalLoop=1;jettySize=auto;html=1;entryX=0;entryY=0.5;entryDx=0;entryDy=0;strokeColor=default;endArrow=none;endFill=0;exitX=1;exitY=0.5;exitDx=0;exitDy=0;" parent="fgYCP7O1cczUKFr2x7Ze-392" source="fgYCP7O1cczUKFr2x7Ze-587" target="fgYCP7O1cczUKFr2x7Ze-590" edge="1">
          <mxGeometry relative="1" as="geometry">
            <mxPoint x="50" y="2305" as="sourcePoint" />
            <mxPoint x="160" y="2340" as="targetPoint" />
          </mxGeometry>
        </mxCell>
        <mxCell id="fgYCP7O1cczUKFr2x7Ze-482" value="名称（尖峰/高峰/低谷/平段）" style="ellipse;whiteSpace=wrap;html=1;align=center;fontStyle=0;rounded=0;sketch=0;fillColor=none;" parent="fgYCP7O1cczUKFr2x7Ze-392" vertex="1">
          <mxGeometry x="480" y="564" width="170" height="56" as="geometry" />
        </mxCell>
        <mxCell id="fgYCP7O1cczUKFr2x7Ze-487" style="rounded=0;orthogonalLoop=1;jettySize=auto;html=1;exitX=0.5;exitY=0;exitDx=0;exitDy=0;strokeColor=default;endArrow=none;endFill=0;entryX=0.5;entryY=1;entryDx=0;entryDy=0;" parent="fgYCP7O1cczUKFr2x7Ze-392" source="fgYCP7O1cczUKFr2x7Ze-481" target="fgYCP7O1cczUKFr2x7Ze-482" edge="1">
          <mxGeometry relative="1" as="geometry">
            <mxPoint x="740" y="-679" as="sourcePoint" />
            <mxPoint x="870" y="-654" as="targetPoint" />
          </mxGeometry>
        </mxCell>
        <mxCell id="fgYCP7O1cczUKFr2x7Ze-469" value="名称" style="ellipse;whiteSpace=wrap;html=1;align=center;fontStyle=0;rounded=0;sketch=0;fillColor=none;" parent="fgYCP7O1cczUKFr2x7Ze-392" vertex="1">
          <mxGeometry x="30" y="610" width="100" height="40" as="geometry" />
        </mxCell>
        <mxCell id="fgYCP7O1cczUKFr2x7Ze-470" style="rounded=0;orthogonalLoop=1;jettySize=auto;html=1;entryX=0.27;entryY=0.975;entryDx=0;entryDy=0;strokeColor=default;endArrow=none;endFill=0;entryPerimeter=0;exitX=0.5;exitY=0;exitDx=0;exitDy=0;" parent="fgYCP7O1cczUKFr2x7Ze-392" source="fgYCP7O1cczUKFr2x7Ze-468" target="fgYCP7O1cczUKFr2x7Ze-469" edge="1">
          <mxGeometry relative="1" as="geometry">
            <mxPoint x="260" y="-608" as="sourcePoint" />
            <mxPoint x="322" y="-759" as="targetPoint" />
          </mxGeometry>
        </mxCell>
        <mxCell id="-1BbnuGMBv0PjYFlIGcD-8" value="水电气表位置id" style="ellipse;whiteSpace=wrap;html=1;" vertex="1" parent="fgYCP7O1cczUKFr2x7Ze-392">
          <mxGeometry x="695" y="194" width="120" height="40" as="geometry" />
        </mxCell>
        <mxCell id="-1BbnuGMBv0PjYFlIGcD-9" value="" style="endArrow=none;html=1;rounded=0;exitX=1;exitY=0.5;exitDx=0;exitDy=0;" edge="1" parent="fgYCP7O1cczUKFr2x7Ze-392" source="fgYCP7O1cczUKFr2x7Ze-508" target="fgYCP7O1cczUKFr2x7Ze-461">
          <mxGeometry width="50" height="50" relative="1" as="geometry">
            <mxPoint x="680" y="339" as="sourcePoint" />
            <mxPoint x="730" y="289" as="targetPoint" />
          </mxGeometry>
        </mxCell>
        <mxCell id="-1BbnuGMBv0PjYFlIGcD-10" value="1" style="edgeLabel;html=1;align=center;verticalAlign=middle;resizable=0;points=[];" vertex="1" connectable="0" parent="-1BbnuGMBv0PjYFlIGcD-9">
          <mxGeometry x="-0.8105" y="2" relative="1" as="geometry">
            <mxPoint as="offset" />
          </mxGeometry>
        </mxCell>
        <mxCell id="-1BbnuGMBv0PjYFlIGcD-12" value="0..n" style="edgeLabel;html=1;align=center;verticalAlign=middle;resizable=0;points=[];" vertex="1" connectable="0" parent="-1BbnuGMBv0PjYFlIGcD-9">
          <mxGeometry x="0.6632" relative="1" as="geometry">
            <mxPoint as="offset" />
          </mxGeometry>
        </mxCell>
        <mxCell id="fgYCP7O1cczUKFr2x7Ze-495" value="表类别(电表、水表)" style="ellipse;whiteSpace=wrap;html=1;" parent="fgYCP7O1cczUKFr2x7Ze-392" vertex="1">
          <mxGeometry x="80" y="550" width="150" height="40" as="geometry" />
        </mxCell>
        <mxCell id="fgYCP7O1cczUKFr2x7Ze-496" style="rounded=0;orthogonalLoop=1;jettySize=auto;html=1;entryX=0.5;entryY=1;entryDx=0;entryDy=0;strokeColor=default;endArrow=none;endFill=0;exitX=0.5;exitY=0;exitDx=0;exitDy=0;" parent="fgYCP7O1cczUKFr2x7Ze-392" source="fgYCP7O1cczUKFr2x7Ze-468" target="fgYCP7O1cczUKFr2x7Ze-495" edge="1">
          <mxGeometry relative="1" as="geometry">
            <mxPoint x="250" y="736" as="sourcePoint" />
            <mxPoint x="350" y="656" as="targetPoint" />
          </mxGeometry>
        </mxCell>
        <mxCell id="fgYCP7O1cczUKFr2x7Ze-476" value="类别&lt;br&gt;(其余时间、自定义时间段)" style="ellipse;whiteSpace=wrap;html=1;" parent="fgYCP7O1cczUKFr2x7Ze-392" vertex="1">
          <mxGeometry x="330" y="550" width="160" height="50" as="geometry" />
        </mxCell>
        <mxCell id="fgYCP7O1cczUKFr2x7Ze-478" style="rounded=0;orthogonalLoop=1;jettySize=auto;html=1;strokeColor=default;endArrow=none;endFill=0;exitX=0.5;exitY=0;exitDx=0;exitDy=0;" parent="fgYCP7O1cczUKFr2x7Ze-392" source="fgYCP7O1cczUKFr2x7Ze-481" target="fgYCP7O1cczUKFr2x7Ze-476" edge="1">
          <mxGeometry relative="1" as="geometry">
            <mxPoint x="520" y="750" as="sourcePoint" />
            <mxPoint x="360" y="581" as="targetPoint" />
          </mxGeometry>
        </mxCell>
        <mxCell id="fgYCP7O1cczUKFr2x7Ze-471" value="开始时间" style="ellipse;whiteSpace=wrap;html=1;align=center;fontStyle=0;rounded=0;sketch=0;fillColor=none;" parent="fgYCP7O1cczUKFr2x7Ze-392" vertex="1">
          <mxGeometry x="230" y="590" width="100" height="40" as="geometry" />
        </mxCell>
        <mxCell id="fgYCP7O1cczUKFr2x7Ze-472" style="rounded=0;orthogonalLoop=1;jettySize=auto;html=1;exitX=0.5;exitY=0;exitDx=0;exitDy=0;strokeColor=default;endArrow=none;endFill=0;entryX=0;entryY=0.5;entryDx=0;entryDy=0;" parent="fgYCP7O1cczUKFr2x7Ze-392" source="fgYCP7O1cczUKFr2x7Ze-468" target="fgYCP7O1cczUKFr2x7Ze-471" edge="1">
          <mxGeometry relative="1" as="geometry">
            <mxPoint x="290" y="-714" as="sourcePoint" />
            <mxPoint x="370" y="-729" as="targetPoint" />
          </mxGeometry>
        </mxCell>
        <mxCell id="fgYCP7O1cczUKFr2x7Ze-477" value="结束时间" style="ellipse;whiteSpace=wrap;html=1;align=center;fontStyle=0;rounded=0;sketch=0;fillColor=none;" parent="fgYCP7O1cczUKFr2x7Ze-392" vertex="1">
          <mxGeometry x="304" y="640" width="100" height="40" as="geometry" />
        </mxCell>
        <mxCell id="fgYCP7O1cczUKFr2x7Ze-479" style="rounded=0;orthogonalLoop=1;jettySize=auto;html=1;strokeColor=default;endArrow=none;endFill=0;entryX=0;entryY=0.5;entryDx=0;entryDy=0;exitX=0.5;exitY=0;exitDx=0;exitDy=0;" parent="fgYCP7O1cczUKFr2x7Ze-392" source="fgYCP7O1cczUKFr2x7Ze-468" target="fgYCP7O1cczUKFr2x7Ze-477" edge="1">
          <mxGeometry relative="1" as="geometry">
            <mxPoint x="240" y="731" as="sourcePoint" />
            <mxPoint x="350" y="721" as="targetPoint" />
          </mxGeometry>
        </mxCell>
        <mxCell id="-1BbnuGMBv0PjYFlIGcD-13" value="" style="endArrow=none;html=1;rounded=0;exitX=1;exitY=0.5;exitDx=0;exitDy=0;entryX=0;entryY=0.5;entryDx=0;entryDy=0;" edge="1" parent="fgYCP7O1cczUKFr2x7Ze-392" source="fgYCP7O1cczUKFr2x7Ze-468" target="fgYCP7O1cczUKFr2x7Ze-481">
          <mxGeometry width="50" height="50" relative="1" as="geometry">
            <mxPoint x="250" y="800" as="sourcePoint" />
            <mxPoint x="440" y="800" as="targetPoint" />
          </mxGeometry>
        </mxCell>
        <mxCell id="-1BbnuGMBv0PjYFlIGcD-14" value="1" style="edgeLabel;html=1;align=center;verticalAlign=middle;resizable=0;points=[];" vertex="1" connectable="0" parent="-1BbnuGMBv0PjYFlIGcD-13">
          <mxGeometry x="-0.8105" y="2" relative="1" as="geometry">
            <mxPoint as="offset" />
          </mxGeometry>
        </mxCell>
        <mxCell id="-1BbnuGMBv0PjYFlIGcD-15" value="1..n" style="edgeLabel;html=1;align=center;verticalAlign=middle;resizable=0;points=[];" vertex="1" connectable="0" parent="-1BbnuGMBv0PjYFlIGcD-13">
          <mxGeometry x="0.6632" relative="1" as="geometry">
            <mxPoint as="offset" />
          </mxGeometry>
        </mxCell>
        <mxCell id="-1BbnuGMBv0PjYFlIGcD-23" value="计费时间段" style="whiteSpace=wrap;html=1;align=center;rounded=0;sketch=0;fillColor=none;" vertex="1" parent="fgYCP7O1cczUKFr2x7Ze-392">
          <mxGeometry x="480" y="880" width="100" height="50" as="geometry" />
        </mxCell>
        <mxCell id="-1BbnuGMBv0PjYFlIGcD-37" value="" style="endArrow=none;html=1;rounded=0;exitX=0.5;exitY=1;exitDx=0;exitDy=0;" edge="1" parent="fgYCP7O1cczUKFr2x7Ze-392" source="fgYCP7O1cczUKFr2x7Ze-481" target="-1BbnuGMBv0PjYFlIGcD-23">
          <mxGeometry width="50" height="50" relative="1" as="geometry">
            <mxPoint x="570" y="1045" as="sourcePoint" />
            <mxPoint x="820" y="1040" as="targetPoint" />
          </mxGeometry>
        </mxCell>
        <mxCell id="-1BbnuGMBv0PjYFlIGcD-38" value="1" style="edgeLabel;html=1;align=center;verticalAlign=middle;resizable=0;points=[];" vertex="1" connectable="0" parent="-1BbnuGMBv0PjYFlIGcD-37">
          <mxGeometry x="-0.8105" y="2" relative="1" as="geometry">
            <mxPoint as="offset" />
          </mxGeometry>
        </mxCell>
        <mxCell id="-1BbnuGMBv0PjYFlIGcD-39" value="1..n" style="edgeLabel;html=1;align=center;verticalAlign=middle;resizable=0;points=[];" vertex="1" connectable="0" parent="-1BbnuGMBv0PjYFlIGcD-37">
          <mxGeometry x="0.6632" relative="1" as="geometry">
            <mxPoint as="offset" />
          </mxGeometry>
        </mxCell>
        <mxCell id="-1BbnuGMBv0PjYFlIGcD-25" value="结束时间" style="ellipse;whiteSpace=wrap;html=1;" vertex="1" parent="fgYCP7O1cczUKFr2x7Ze-392">
          <mxGeometry x="670" y="900" width="150" height="40" as="geometry" />
        </mxCell>
        <mxCell id="-1BbnuGMBv0PjYFlIGcD-27" style="rounded=0;orthogonalLoop=1;jettySize=auto;html=1;strokeColor=default;endArrow=none;endFill=0;entryX=0;entryY=0.5;entryDx=0;entryDy=0;exitX=1;exitY=0.5;exitDx=0;exitDy=0;" edge="1" parent="fgYCP7O1cczUKFr2x7Ze-392" source="-1BbnuGMBv0PjYFlIGcD-23" target="-1BbnuGMBv0PjYFlIGcD-25">
          <mxGeometry relative="1" as="geometry">
            <mxPoint x="790" y="1890" as="sourcePoint" />
            <mxPoint x="850" y="1850" as="targetPoint" />
          </mxGeometry>
        </mxCell>
        <mxCell id="-1BbnuGMBv0PjYFlIGcD-24" value="开始时间" style="ellipse;whiteSpace=wrap;html=1;" vertex="1" parent="fgYCP7O1cczUKFr2x7Ze-392">
          <mxGeometry x="667" y="820" width="150" height="40" as="geometry" />
        </mxCell>
        <mxCell id="-1BbnuGMBv0PjYFlIGcD-26" style="rounded=0;orthogonalLoop=1;jettySize=auto;html=1;exitX=1;exitY=0.5;exitDx=0;exitDy=0;strokeColor=default;endArrow=none;endFill=0;entryX=0;entryY=0.5;entryDx=0;entryDy=0;" edge="1" parent="fgYCP7O1cczUKFr2x7Ze-392" source="-1BbnuGMBv0PjYFlIGcD-23" target="-1BbnuGMBv0PjYFlIGcD-24">
          <mxGeometry relative="1" as="geometry">
            <mxPoint x="300" y="1885" as="sourcePoint" />
            <mxPoint x="380" y="1799" as="targetPoint" />
          </mxGeometry>
        </mxCell>
        <mxCell id="-1BbnuGMBv0PjYFlIGcD-32" value="基础单价修改记录" style="whiteSpace=wrap;html=1;align=center;rounded=0;sketch=0;fillColor=none;" vertex="1" parent="fgYCP7O1cczUKFr2x7Ze-392">
          <mxGeometry x="354" y="1090" width="100" height="50" as="geometry" />
        </mxCell>
        <mxCell id="-1BbnuGMBv0PjYFlIGcD-35" value="价格" style="ellipse;whiteSpace=wrap;html=1;align=center;fontStyle=4;rounded=0;sketch=0;fillColor=none;" vertex="1" parent="fgYCP7O1cczUKFr2x7Ze-392">
          <mxGeometry x="510" y="1030" width="100" height="30" as="geometry" />
        </mxCell>
        <mxCell id="-1BbnuGMBv0PjYFlIGcD-36" style="rounded=0;orthogonalLoop=1;jettySize=auto;html=1;exitX=1;exitY=0.5;exitDx=0;exitDy=0;strokeColor=default;endArrow=none;endFill=0;entryX=0;entryY=0.5;entryDx=0;entryDy=0;" edge="1" parent="fgYCP7O1cczUKFr2x7Ze-392" source="-1BbnuGMBv0PjYFlIGcD-32" target="-1BbnuGMBv0PjYFlIGcD-35">
          <mxGeometry relative="1" as="geometry">
            <mxPoint x="910" y="2276" as="sourcePoint" />
            <mxPoint x="1030" y="2276" as="targetPoint" />
          </mxGeometry>
        </mxCell>
        <mxCell id="-1BbnuGMBv0PjYFlIGcD-30" value="修改时间" style="ellipse;whiteSpace=wrap;html=1;align=center;fontStyle=4;rounded=0;sketch=0;fillColor=none;" vertex="1" parent="fgYCP7O1cczUKFr2x7Ze-392">
          <mxGeometry x="510" y="1110" width="100" height="40" as="geometry" />
        </mxCell>
        <mxCell id="-1BbnuGMBv0PjYFlIGcD-31" style="rounded=0;orthogonalLoop=1;jettySize=auto;html=1;strokeColor=default;endArrow=none;endFill=0;entryX=0;entryY=0.5;entryDx=0;entryDy=0;exitX=1;exitY=0.5;exitDx=0;exitDy=0;" edge="1" parent="fgYCP7O1cczUKFr2x7Ze-392" source="-1BbnuGMBv0PjYFlIGcD-32" target="-1BbnuGMBv0PjYFlIGcD-30">
          <mxGeometry relative="1" as="geometry">
            <mxPoint x="880" y="2186" as="sourcePoint" />
            <mxPoint x="970" y="2142" as="targetPoint" />
          </mxGeometry>
        </mxCell>
        <mxCell id="-1BbnuGMBv0PjYFlIGcD-41" style="rounded=0;orthogonalLoop=1;jettySize=auto;html=1;exitX=1;exitY=0.5;exitDx=0;exitDy=0;strokeColor=default;endArrow=none;endFill=0;" edge="1" parent="fgYCP7O1cczUKFr2x7Ze-392" source="fgYCP7O1cczUKFr2x7Ze-608" target="-1BbnuGMBv0PjYFlIGcD-32">
          <mxGeometry relative="1" as="geometry">
            <mxPoint x="165" y="1100" as="sourcePoint" />
            <mxPoint x="260" y="990" as="targetPoint" />
          </mxGeometry>
        </mxCell>
        <mxCell id="-1BbnuGMBv0PjYFlIGcD-42" value="1" style="edgeLabel;html=1;align=center;verticalAlign=middle;resizable=0;points=[];" vertex="1" connectable="0" parent="-1BbnuGMBv0PjYFlIGcD-41">
          <mxGeometry x="-0.8046" y="3" relative="1" as="geometry">
            <mxPoint as="offset" />
          </mxGeometry>
        </mxCell>
        <mxCell id="-1BbnuGMBv0PjYFlIGcD-43" value="1..n" style="edgeLabel;html=1;align=center;verticalAlign=middle;resizable=0;points=[];" vertex="1" connectable="0" parent="-1BbnuGMBv0PjYFlIGcD-41">
          <mxGeometry x="0.7238" relative="1" as="geometry">
            <mxPoint as="offset" />
          </mxGeometry>
        </mxCell>
        <mxCell id="-1BbnuGMBv0PjYFlIGcD-353" value="修改时间" style="ellipse;whiteSpace=wrap;html=1;" vertex="1" parent="fgYCP7O1cczUKFr2x7Ze-392">
          <mxGeometry x="259.9992003710541" y="380" width="120" height="40" as="geometry" />
        </mxCell>
        <mxCell id="-1BbnuGMBv0PjYFlIGcD-362" value="绑定开始时间" style="ellipse;whiteSpace=wrap;html=1;" vertex="1" parent="fgYCP7O1cczUKFr2x7Ze-392">
          <mxGeometry x="239.9992003710541" y="340" width="120" height="40" as="geometry" />
        </mxCell>
        <mxCell id="-1BbnuGMBv0PjYFlIGcD-352" value="表位置绑定" style="rounded=0;whiteSpace=wrap;html=1;" vertex="1" parent="fgYCP7O1cczUKFr2x7Ze-392">
          <mxGeometry x="149.9992003710541" y="420" width="120" height="50" as="geometry" />
        </mxCell>
        <mxCell id="-1BbnuGMBv0PjYFlIGcD-354" value="" style="endArrow=none;html=1;rounded=0;entryX=0;entryY=0.5;entryDx=0;entryDy=0;startArrow=none;exitX=0.5;exitY=0;exitDx=0;exitDy=0;" edge="1" parent="fgYCP7O1cczUKFr2x7Ze-392" source="-1BbnuGMBv0PjYFlIGcD-352" target="-1BbnuGMBv0PjYFlIGcD-353">
          <mxGeometry width="50" height="50" relative="1" as="geometry">
            <mxPoint x="572.1792003710541" y="-305" as="sourcePoint" />
            <mxPoint x="272.1792003710541" y="-81" as="targetPoint" />
          </mxGeometry>
        </mxCell>
        <mxCell id="-1BbnuGMBv0PjYFlIGcD-363" value="" style="endArrow=none;html=1;rounded=0;exitX=0.5;exitY=0;exitDx=0;exitDy=0;" edge="1" parent="fgYCP7O1cczUKFr2x7Ze-392" source="-1BbnuGMBv0PjYFlIGcD-352" target="-1BbnuGMBv0PjYFlIGcD-362">
          <mxGeometry width="50" height="50" relative="1" as="geometry">
            <mxPoint x="152.1792003710541" y="494" as="sourcePoint" />
            <mxPoint x="432.1792003710541" y="499" as="targetPoint" />
          </mxGeometry>
        </mxCell>
        <mxCell id="-1BbnuGMBv0PjYFlIGcD-360" value="表绑定初始刻度值" style="ellipse;whiteSpace=wrap;html=1;" vertex="1" parent="fgYCP7O1cczUKFr2x7Ze-392">
          <mxGeometry x="109.99920037105409" y="266" width="120" height="40" as="geometry" />
        </mxCell>
        <mxCell id="-1BbnuGMBv0PjYFlIGcD-361" value="" style="endArrow=none;html=1;rounded=0;exitX=0.5;exitY=0;exitDx=0;exitDy=0;" edge="1" parent="fgYCP7O1cczUKFr2x7Ze-392" source="-1BbnuGMBv0PjYFlIGcD-352" target="-1BbnuGMBv0PjYFlIGcD-360">
          <mxGeometry width="50" height="50" relative="1" as="geometry">
            <mxPoint x="622.1792003710541" y="-615" as="sourcePoint" />
            <mxPoint x="692.1792003710541" y="-615" as="targetPoint" />
          </mxGeometry>
        </mxCell>
        <mxCell id="-1BbnuGMBv0PjYFlIGcD-357" value="绑定结束时间" style="ellipse;whiteSpace=wrap;html=1;" vertex="1" parent="fgYCP7O1cczUKFr2x7Ze-392">
          <mxGeometry x="189.9992003710541" y="300" width="120" height="40" as="geometry" />
        </mxCell>
        <mxCell id="-1BbnuGMBv0PjYFlIGcD-358" value="" style="endArrow=none;html=1;rounded=0;exitX=0.5;exitY=0;exitDx=0;exitDy=0;" edge="1" parent="fgYCP7O1cczUKFr2x7Ze-392" source="-1BbnuGMBv0PjYFlIGcD-352" target="-1BbnuGMBv0PjYFlIGcD-357">
          <mxGeometry width="50" height="50" relative="1" as="geometry">
            <mxPoint x="582.1792003710541" y="-590" as="sourcePoint" />
            <mxPoint x="702.1792003710541" y="-480" as="targetPoint" />
          </mxGeometry>
        </mxCell>
        <mxCell id="-1BbnuGMBv0PjYFlIGcD-382" value="位置类型(电表位置、水表位置、气表位置)" style="ellipse;whiteSpace=wrap;html=1;" vertex="1" parent="fgYCP7O1cczUKFr2x7Ze-392">
          <mxGeometry x="10" y="306" width="170" height="40" as="geometry" />
        </mxCell>
        <mxCell id="-1BbnuGMBv0PjYFlIGcD-383" value="" style="endArrow=none;html=1;rounded=0;exitX=0.5;exitY=0;exitDx=0;exitDy=0;entryX=0.5;entryY=1;entryDx=0;entryDy=0;" edge="1" parent="fgYCP7O1cczUKFr2x7Ze-392" source="-1BbnuGMBv0PjYFlIGcD-352" target="-1BbnuGMBv0PjYFlIGcD-382">
          <mxGeometry width="50" height="50" relative="1" as="geometry">
            <mxPoint x="360" y="370" as="sourcePoint" />
            <mxPoint x="410" y="320" as="targetPoint" />
          </mxGeometry>
        </mxCell>
        <mxCell id="-1BbnuGMBv0PjYFlIGcD-468" value="水/电/气表位置" style="rounded=0;whiteSpace=wrap;html=1;" vertex="1" parent="fgYCP7O1cczUKFr2x7Ze-392">
          <mxGeometry x="343.9992003710541" y="480" width="120" height="50" as="geometry" />
        </mxCell>
        <mxCell id="-1BbnuGMBv0PjYFlIGcD-469" value="" style="endArrow=none;html=1;rounded=0;entryX=0;entryY=0.5;entryDx=0;entryDy=0;exitX=0.5;exitY=1;exitDx=0;exitDy=0;" edge="1" parent="fgYCP7O1cczUKFr2x7Ze-392" source="-1BbnuGMBv0PjYFlIGcD-352" target="-1BbnuGMBv0PjYFlIGcD-468">
          <mxGeometry width="50" height="50" relative="1" as="geometry">
            <mxPoint x="219.99920037105403" y="430" as="sourcePoint" />
            <mxPoint x="334" y="289" as="targetPoint" />
          </mxGeometry>
        </mxCell>
        <mxCell id="-1BbnuGMBv0PjYFlIGcD-475" value="1..n" style="edgeLabel;html=1;align=center;verticalAlign=middle;resizable=0;points=[];" vertex="1" connectable="0" parent="-1BbnuGMBv0PjYFlIGcD-469">
          <mxGeometry x="-0.6019" relative="1" as="geometry">
            <mxPoint as="offset" />
          </mxGeometry>
        </mxCell>
        <mxCell id="-1BbnuGMBv0PjYFlIGcD-476" value="1" style="edgeLabel;html=1;align=center;verticalAlign=middle;resizable=0;points=[];" vertex="1" connectable="0" parent="-1BbnuGMBv0PjYFlIGcD-469">
          <mxGeometry x="0.7153" y="-1" relative="1" as="geometry">
            <mxPoint as="offset" />
          </mxGeometry>
        </mxCell>
        <mxCell id="-1BbnuGMBv0PjYFlIGcD-470" value="水/电/气表" style="rounded=0;whiteSpace=wrap;html=1;" vertex="1" parent="fgYCP7O1cczUKFr2x7Ze-392">
          <mxGeometry x="383.99920037105403" y="410" width="120" height="50" as="geometry" />
        </mxCell>
        <mxCell id="-1BbnuGMBv0PjYFlIGcD-472" value="" style="endArrow=none;html=1;rounded=0;entryX=0;entryY=0.5;entryDx=0;entryDy=0;exitX=1;exitY=0.5;exitDx=0;exitDy=0;" edge="1" parent="fgYCP7O1cczUKFr2x7Ze-392" source="-1BbnuGMBv0PjYFlIGcD-352" target="-1BbnuGMBv0PjYFlIGcD-470">
          <mxGeometry width="50" height="50" relative="1" as="geometry">
            <mxPoint x="219.99920037105403" y="480" as="sourcePoint" />
            <mxPoint x="353.99920037105403" y="515" as="targetPoint" />
          </mxGeometry>
        </mxCell>
        <mxCell id="-1BbnuGMBv0PjYFlIGcD-473" value="1" style="edgeLabel;html=1;align=center;verticalAlign=middle;resizable=0;points=[];" vertex="1" connectable="0" parent="-1BbnuGMBv0PjYFlIGcD-472">
          <mxGeometry x="0.7474" y="-1" relative="1" as="geometry">
            <mxPoint as="offset" />
          </mxGeometry>
        </mxCell>
        <mxCell id="-1BbnuGMBv0PjYFlIGcD-474" value="1..n" style="edgeLabel;html=1;align=center;verticalAlign=middle;resizable=0;points=[];" vertex="1" connectable="0" parent="-1BbnuGMBv0PjYFlIGcD-472">
          <mxGeometry x="-0.8143" y="-1" relative="1" as="geometry">
            <mxPoint as="offset" />
          </mxGeometry>
        </mxCell>
        <mxCell id="fgYCP7O1cczUKFr2x7Ze-573" value="电表模块" style="swimlane;align=left;spacingLeft=20;container=1;" parent="1" vertex="1">
          <mxGeometry x="20" y="560" width="1720" height="1750" as="geometry" />
        </mxCell>
        <mxCell id="fgYCP7O1cczUKFr2x7Ze-546" value="表位置绑定记录" style="rounded=0;whiteSpace=wrap;html=1;" parent="fgYCP7O1cczUKFr2x7Ze-573" vertex="1">
          <mxGeometry x="586" y="434.5" width="120" height="50" as="geometry" />
        </mxCell>
        <mxCell id="-1BbnuGMBv0PjYFlIGcD-7" value="设备id" style="ellipse;whiteSpace=wrap;html=1;" vertex="1" parent="fgYCP7O1cczUKFr2x7Ze-573">
          <mxGeometry x="275" y="195" width="70" height="40" as="geometry" />
        </mxCell>
        <mxCell id="fgYCP7O1cczUKFr2x7Ze-557" value="类型(电表、分类)" style="ellipse;whiteSpace=wrap;html=1;" parent="fgYCP7O1cczUKFr2x7Ze-573" vertex="1">
          <mxGeometry x="70" y="330" width="120" height="40" as="geometry" />
        </mxCell>
        <mxCell id="fgYCP7O1cczUKFr2x7Ze-521" value="种类(高压、低压)" style="ellipse;whiteSpace=wrap;html=1;" parent="fgYCP7O1cczUKFr2x7Ze-573" vertex="1">
          <mxGeometry x="130" y="270" width="120" height="40" as="geometry" />
        </mxCell>
        <mxCell id="fgYCP7O1cczUKFr2x7Ze-522" value="位置" style="ellipse;whiteSpace=wrap;html=1;" parent="fgYCP7O1cczUKFr2x7Ze-573" vertex="1">
          <mxGeometry x="200" y="220" width="80" height="40" as="geometry" />
        </mxCell>
        <mxCell id="fgYCP7O1cczUKFr2x7Ze-523" value="工段" style="ellipse;whiteSpace=wrap;html=1;" parent="fgYCP7O1cczUKFr2x7Ze-573" vertex="1">
          <mxGeometry x="360" y="195" width="70" height="40" as="geometry" />
        </mxCell>
        <mxCell id="fgYCP7O1cczUKFr2x7Ze-524" value="倍率" style="ellipse;whiteSpace=wrap;html=1;" parent="fgYCP7O1cczUKFr2x7Ze-573" vertex="1">
          <mxGeometry x="400" y="235" width="70" height="40" as="geometry" />
        </mxCell>
        <mxCell id="fgYCP7O1cczUKFr2x7Ze-525" value="备注" style="ellipse;whiteSpace=wrap;html=1;" parent="fgYCP7O1cczUKFr2x7Ze-573" vertex="1">
          <mxGeometry x="450" y="280" width="80" height="40" as="geometry" />
        </mxCell>
        <mxCell id="fgYCP7O1cczUKFr2x7Ze-526" value="父节点" style="ellipse;whiteSpace=wrap;html=1;" parent="fgYCP7O1cczUKFr2x7Ze-573" vertex="1">
          <mxGeometry x="470" y="320" width="80" height="40" as="geometry" />
        </mxCell>
        <mxCell id="fgYCP7O1cczUKFr2x7Ze-518" value="电表位置" style="rounded=0;whiteSpace=wrap;html=1;" parent="fgYCP7O1cczUKFr2x7Ze-573" vertex="1">
          <mxGeometry x="210" y="420" width="120" height="50" as="geometry" />
        </mxCell>
        <mxCell id="fgYCP7O1cczUKFr2x7Ze-527" value="" style="endArrow=none;html=1;rounded=0;exitX=0.5;exitY=0;exitDx=0;exitDy=0;" parent="fgYCP7O1cczUKFr2x7Ze-573" source="fgYCP7O1cczUKFr2x7Ze-518" target="fgYCP7O1cczUKFr2x7Ze-521" edge="1">
          <mxGeometry width="50" height="50" relative="1" as="geometry">
            <mxPoint x="190" y="35.5" as="sourcePoint" />
            <mxPoint x="350" y="-179.5" as="targetPoint" />
          </mxGeometry>
        </mxCell>
        <mxCell id="fgYCP7O1cczUKFr2x7Ze-528" value="" style="endArrow=none;html=1;rounded=0;entryX=0.5;entryY=1;entryDx=0;entryDy=0;exitX=0.5;exitY=0;exitDx=0;exitDy=0;" parent="fgYCP7O1cczUKFr2x7Ze-573" source="fgYCP7O1cczUKFr2x7Ze-518" target="fgYCP7O1cczUKFr2x7Ze-522" edge="1">
          <mxGeometry width="50" height="50" relative="1" as="geometry">
            <mxPoint x="190" y="35.5" as="sourcePoint" />
            <mxPoint x="350" y="-109.5" as="targetPoint" />
          </mxGeometry>
        </mxCell>
        <mxCell id="fgYCP7O1cczUKFr2x7Ze-529" value="" style="endArrow=none;html=1;rounded=0;entryX=0;entryY=1;entryDx=0;entryDy=0;exitX=0.5;exitY=0;exitDx=0;exitDy=0;" parent="fgYCP7O1cczUKFr2x7Ze-573" source="fgYCP7O1cczUKFr2x7Ze-518" target="fgYCP7O1cczUKFr2x7Ze-523" edge="1">
          <mxGeometry width="50" height="50" relative="1" as="geometry">
            <mxPoint x="310" y="440.5" as="sourcePoint" />
            <mxPoint x="360" y="-39.5" as="targetPoint" />
          </mxGeometry>
        </mxCell>
        <mxCell id="fgYCP7O1cczUKFr2x7Ze-530" value="" style="endArrow=none;html=1;rounded=0;exitX=0.5;exitY=0;exitDx=0;exitDy=0;entryX=0.058;entryY=0.8;entryDx=0;entryDy=0;entryPerimeter=0;" parent="fgYCP7O1cczUKFr2x7Ze-573" source="fgYCP7O1cczUKFr2x7Ze-518" target="fgYCP7O1cczUKFr2x7Ze-524" edge="1">
          <mxGeometry width="50" height="50" relative="1" as="geometry">
            <mxPoint x="190" y="35.5" as="sourcePoint" />
            <mxPoint x="360" y="10.5" as="targetPoint" />
          </mxGeometry>
        </mxCell>
        <mxCell id="fgYCP7O1cczUKFr2x7Ze-531" value="" style="endArrow=none;html=1;rounded=0;exitX=0.5;exitY=0;exitDx=0;exitDy=0;entryX=0;entryY=1;entryDx=0;entryDy=0;" parent="fgYCP7O1cczUKFr2x7Ze-573" source="fgYCP7O1cczUKFr2x7Ze-518" target="fgYCP7O1cczUKFr2x7Ze-525" edge="1">
          <mxGeometry width="50" height="50" relative="1" as="geometry">
            <mxPoint x="180" y="25.5" as="sourcePoint" />
            <mxPoint x="380" y="140.5" as="targetPoint" />
          </mxGeometry>
        </mxCell>
        <mxCell id="fgYCP7O1cczUKFr2x7Ze-532" value="" style="endArrow=none;html=1;rounded=0;entryX=0.5;entryY=1;entryDx=0;entryDy=0;exitX=0.5;exitY=0;exitDx=0;exitDy=0;" parent="fgYCP7O1cczUKFr2x7Ze-573" source="fgYCP7O1cczUKFr2x7Ze-518" target="fgYCP7O1cczUKFr2x7Ze-526" edge="1">
          <mxGeometry width="50" height="50" relative="1" as="geometry">
            <mxPoint x="190" y="35.5" as="sourcePoint" />
            <mxPoint x="370" y="110.5" as="targetPoint" />
          </mxGeometry>
        </mxCell>
        <mxCell id="fgYCP7O1cczUKFr2x7Ze-556" value="" style="endArrow=none;html=1;rounded=0;entryX=0.5;entryY=1;entryDx=0;entryDy=0;exitX=0.5;exitY=0;exitDx=0;exitDy=0;" parent="fgYCP7O1cczUKFr2x7Ze-573" source="fgYCP7O1cczUKFr2x7Ze-518" target="-1BbnuGMBv0PjYFlIGcD-7" edge="1">
          <mxGeometry width="50" height="50" relative="1" as="geometry">
            <mxPoint x="160" y="25.5" as="sourcePoint" />
            <mxPoint x="360" y="323" as="targetPoint" />
          </mxGeometry>
        </mxCell>
        <mxCell id="fgYCP7O1cczUKFr2x7Ze-558" value="" style="endArrow=none;html=1;rounded=0;entryX=0.5;entryY=1;entryDx=0;entryDy=0;exitX=0.5;exitY=0;exitDx=0;exitDy=0;" parent="fgYCP7O1cczUKFr2x7Ze-573" source="fgYCP7O1cczUKFr2x7Ze-518" target="fgYCP7O1cczUKFr2x7Ze-557" edge="1">
          <mxGeometry width="50" height="50" relative="1" as="geometry">
            <mxPoint x="150" y="20.5" as="sourcePoint" />
            <mxPoint x="350" y="-109.5" as="targetPoint" />
          </mxGeometry>
        </mxCell>
        <mxCell id="-1BbnuGMBv0PjYFlIGcD-44" value="" style="endArrow=none;html=1;rounded=0;entryX=0;entryY=0.5;entryDx=0;entryDy=0;exitX=1;exitY=0.5;exitDx=0;exitDy=0;" edge="1" parent="fgYCP7O1cczUKFr2x7Ze-573" source="fgYCP7O1cczUKFr2x7Ze-518" target="fgYCP7O1cczUKFr2x7Ze-546">
          <mxGeometry width="50" height="50" relative="1" as="geometry">
            <mxPoint x="230" y="515" as="sourcePoint" />
            <mxPoint x="360" y="460" as="targetPoint" />
          </mxGeometry>
        </mxCell>
        <mxCell id="-1BbnuGMBv0PjYFlIGcD-45" value="1" style="edgeLabel;html=1;align=center;verticalAlign=middle;resizable=0;points=[];" vertex="1" connectable="0" parent="-1BbnuGMBv0PjYFlIGcD-44">
          <mxGeometry x="-0.7517" y="-3" relative="1" as="geometry">
            <mxPoint as="offset" />
          </mxGeometry>
        </mxCell>
        <mxCell id="-1BbnuGMBv0PjYFlIGcD-46" value="0..n" style="edgeLabel;html=1;align=center;verticalAlign=middle;resizable=0;points=[];" vertex="1" connectable="0" parent="-1BbnuGMBv0PjYFlIGcD-44">
          <mxGeometry x="0.7034" y="3" relative="1" as="geometry">
            <mxPoint as="offset" />
          </mxGeometry>
        </mxCell>
        <mxCell id="-1BbnuGMBv0PjYFlIGcD-61" value="在线状态" style="ellipse;whiteSpace=wrap;html=1;" vertex="1" parent="fgYCP7O1cczUKFr2x7Ze-573">
          <mxGeometry x="811" y="790" width="120" height="40" as="geometry" />
        </mxCell>
        <mxCell id="-1BbnuGMBv0PjYFlIGcD-63" value="种类(高压、低压)" style="ellipse;whiteSpace=wrap;html=1;" vertex="1" parent="fgYCP7O1cczUKFr2x7Ze-573">
          <mxGeometry x="816" y="740" width="120" height="40" as="geometry" />
        </mxCell>
        <mxCell id="-1BbnuGMBv0PjYFlIGcD-65" value="倍率" style="ellipse;whiteSpace=wrap;html=1;" vertex="1" parent="fgYCP7O1cczUKFr2x7Ze-573">
          <mxGeometry x="816" y="690" width="120" height="40" as="geometry" />
        </mxCell>
        <mxCell id="-1BbnuGMBv0PjYFlIGcD-69" value="名称" style="ellipse;whiteSpace=wrap;html=1;" vertex="1" parent="fgYCP7O1cczUKFr2x7Ze-573">
          <mxGeometry x="780" y="580" width="120" height="40" as="geometry" />
        </mxCell>
        <mxCell id="-1BbnuGMBv0PjYFlIGcD-67" value="编号" style="ellipse;whiteSpace=wrap;html=1;" vertex="1" parent="fgYCP7O1cczUKFr2x7Ze-573">
          <mxGeometry x="816" y="640" width="110" height="40" as="geometry" />
        </mxCell>
        <mxCell id="-1BbnuGMBv0PjYFlIGcD-60" value="电表" style="rounded=0;whiteSpace=wrap;html=1;" vertex="1" parent="fgYCP7O1cczUKFr2x7Ze-573">
          <mxGeometry x="586" y="620" width="120" height="50" as="geometry" />
        </mxCell>
        <mxCell id="-1BbnuGMBv0PjYFlIGcD-62" value="" style="endArrow=none;html=1;rounded=0;entryX=0;entryY=0.5;entryDx=0;entryDy=0;exitX=1;exitY=0.5;exitDx=0;exitDy=0;" edge="1" parent="fgYCP7O1cczUKFr2x7Ze-573" source="-1BbnuGMBv0PjYFlIGcD-60" target="-1BbnuGMBv0PjYFlIGcD-61">
          <mxGeometry width="50" height="50" relative="1" as="geometry">
            <mxPoint x="696" y="175" as="sourcePoint" />
            <mxPoint x="766" y="210" as="targetPoint" />
          </mxGeometry>
        </mxCell>
        <mxCell id="-1BbnuGMBv0PjYFlIGcD-64" value="" style="endArrow=none;html=1;rounded=0;exitX=1;exitY=0.5;exitDx=0;exitDy=0;entryX=0;entryY=0.5;entryDx=0;entryDy=0;" edge="1" parent="fgYCP7O1cczUKFr2x7Ze-573" source="-1BbnuGMBv0PjYFlIGcD-60" target="-1BbnuGMBv0PjYFlIGcD-63">
          <mxGeometry width="50" height="50" relative="1" as="geometry">
            <mxPoint x="696" y="175" as="sourcePoint" />
            <mxPoint x="766" y="270" as="targetPoint" />
          </mxGeometry>
        </mxCell>
        <mxCell id="-1BbnuGMBv0PjYFlIGcD-66" value="" style="endArrow=none;html=1;rounded=0;entryX=0;entryY=0.5;entryDx=0;entryDy=0;exitX=1;exitY=0.5;exitDx=0;exitDy=0;" edge="1" parent="fgYCP7O1cczUKFr2x7Ze-573" source="-1BbnuGMBv0PjYFlIGcD-60" target="-1BbnuGMBv0PjYFlIGcD-65">
          <mxGeometry width="50" height="50" relative="1" as="geometry">
            <mxPoint x="696" y="175" as="sourcePoint" />
            <mxPoint x="766" y="140" as="targetPoint" />
          </mxGeometry>
        </mxCell>
        <mxCell id="-1BbnuGMBv0PjYFlIGcD-68" value="" style="endArrow=none;html=1;rounded=0;entryX=0;entryY=0.5;entryDx=0;entryDy=0;exitX=1;exitY=0.5;exitDx=0;exitDy=0;" edge="1" parent="fgYCP7O1cczUKFr2x7Ze-573" source="-1BbnuGMBv0PjYFlIGcD-60" target="-1BbnuGMBv0PjYFlIGcD-67">
          <mxGeometry width="50" height="50" relative="1" as="geometry">
            <mxPoint x="696" y="175" as="sourcePoint" />
            <mxPoint x="766" y="80" as="targetPoint" />
          </mxGeometry>
        </mxCell>
        <mxCell id="-1BbnuGMBv0PjYFlIGcD-70" value="" style="endArrow=none;html=1;rounded=0;entryX=0;entryY=0.5;entryDx=0;entryDy=0;exitX=1;exitY=0.5;exitDx=0;exitDy=0;" edge="1" parent="fgYCP7O1cczUKFr2x7Ze-573" source="-1BbnuGMBv0PjYFlIGcD-60" target="-1BbnuGMBv0PjYFlIGcD-69">
          <mxGeometry width="50" height="50" relative="1" as="geometry">
            <mxPoint x="686" y="165" as="sourcePoint" />
            <mxPoint x="766" y="30" as="targetPoint" />
          </mxGeometry>
        </mxCell>
        <mxCell id="-1BbnuGMBv0PjYFlIGcD-71" value="" style="endArrow=none;html=1;rounded=0;entryX=0.5;entryY=1;entryDx=0;entryDy=0;exitX=0.5;exitY=0;exitDx=0;exitDy=0;" edge="1" parent="fgYCP7O1cczUKFr2x7Ze-573" source="-1BbnuGMBv0PjYFlIGcD-60" target="fgYCP7O1cczUKFr2x7Ze-546">
          <mxGeometry width="50" height="50" relative="1" as="geometry">
            <mxPoint x="230" y="315" as="sourcePoint" />
            <mxPoint x="500" y="325" as="targetPoint" />
          </mxGeometry>
        </mxCell>
        <mxCell id="-1BbnuGMBv0PjYFlIGcD-72" value="1" style="edgeLabel;html=1;align=center;verticalAlign=middle;resizable=0;points=[];" vertex="1" connectable="0" parent="-1BbnuGMBv0PjYFlIGcD-71">
          <mxGeometry x="-0.7517" y="-3" relative="1" as="geometry">
            <mxPoint as="offset" />
          </mxGeometry>
        </mxCell>
        <mxCell id="-1BbnuGMBv0PjYFlIGcD-73" value="0..n" style="edgeLabel;html=1;align=center;verticalAlign=middle;resizable=0;points=[];" vertex="1" connectable="0" parent="-1BbnuGMBv0PjYFlIGcD-71">
          <mxGeometry x="0.7034" y="3" relative="1" as="geometry">
            <mxPoint as="offset" />
          </mxGeometry>
        </mxCell>
        <mxCell id="-1BbnuGMBv0PjYFlIGcD-92" value="电表抄表记录" style="whiteSpace=wrap;html=1;align=center;rounded=0;sketch=0;fillColor=none;" vertex="1" parent="fgYCP7O1cczUKFr2x7Ze-573">
          <mxGeometry x="596" y="900" width="100" height="50" as="geometry" />
        </mxCell>
        <mxCell id="-1BbnuGMBv0PjYFlIGcD-93" value="类别（手动抄表/系统采集）" style="ellipse;whiteSpace=wrap;html=1;align=center;fontStyle=4;rounded=0;sketch=0;fillColor=none;" vertex="1" parent="fgYCP7O1cczUKFr2x7Ze-573">
          <mxGeometry x="776" y="860" width="200" height="40" as="geometry" />
        </mxCell>
        <mxCell id="-1BbnuGMBv0PjYFlIGcD-94" style="rounded=0;orthogonalLoop=1;jettySize=auto;html=1;exitX=1;exitY=0.5;exitDx=0;exitDy=0;entryX=0;entryY=0.5;entryDx=0;entryDy=0;strokeColor=default;endArrow=none;endFill=0;" edge="1" parent="fgYCP7O1cczUKFr2x7Ze-573" source="-1BbnuGMBv0PjYFlIGcD-92" target="-1BbnuGMBv0PjYFlIGcD-93">
          <mxGeometry relative="1" as="geometry">
            <mxPoint x="526" y="-1229" as="sourcePoint" />
            <mxPoint x="588" y="-1380" as="targetPoint" />
          </mxGeometry>
        </mxCell>
        <mxCell id="-1BbnuGMBv0PjYFlIGcD-95" value="抄表时间" style="ellipse;whiteSpace=wrap;html=1;align=center;fontStyle=4;rounded=0;sketch=0;fillColor=none;" vertex="1" parent="fgYCP7O1cczUKFr2x7Ze-573">
          <mxGeometry x="800" y="910" width="100" height="40" as="geometry" />
        </mxCell>
        <mxCell id="-1BbnuGMBv0PjYFlIGcD-96" style="rounded=0;orthogonalLoop=1;jettySize=auto;html=1;exitX=1;exitY=0.5;exitDx=0;exitDy=0;strokeColor=default;endArrow=none;endFill=0;entryX=0;entryY=0.5;entryDx=0;entryDy=0;" edge="1" parent="fgYCP7O1cczUKFr2x7Ze-573" source="-1BbnuGMBv0PjYFlIGcD-92" target="-1BbnuGMBv0PjYFlIGcD-95">
          <mxGeometry relative="1" as="geometry">
            <mxPoint x="536" y="-1315" as="sourcePoint" />
            <mxPoint x="616" y="-1330" as="targetPoint" />
          </mxGeometry>
        </mxCell>
        <mxCell id="-1BbnuGMBv0PjYFlIGcD-97" value="抄表示数" style="ellipse;whiteSpace=wrap;html=1;align=center;fontStyle=4;rounded=0;sketch=0;fillColor=none;" vertex="1" parent="fgYCP7O1cczUKFr2x7Ze-573">
          <mxGeometry x="806" y="955" width="100" height="40" as="geometry" />
        </mxCell>
        <mxCell id="-1BbnuGMBv0PjYFlIGcD-98" style="rounded=0;orthogonalLoop=1;jettySize=auto;html=1;exitX=1;exitY=0.5;exitDx=0;exitDy=0;entryX=0.05;entryY=0.675;entryDx=0;entryDy=0;strokeColor=default;endArrow=none;endFill=0;entryPerimeter=0;" edge="1" parent="fgYCP7O1cczUKFr2x7Ze-573" source="-1BbnuGMBv0PjYFlIGcD-92" target="-1BbnuGMBv0PjYFlIGcD-97">
          <mxGeometry relative="1" as="geometry">
            <mxPoint x="526" y="-1205" as="sourcePoint" />
            <mxPoint x="636" y="-1310" as="targetPoint" />
          </mxGeometry>
        </mxCell>
        <mxCell id="-1BbnuGMBv0PjYFlIGcD-101" value="功率" style="ellipse;whiteSpace=wrap;html=1;align=center;fontStyle=4;rounded=0;sketch=0;fillColor=none;" vertex="1" parent="fgYCP7O1cczUKFr2x7Ze-573">
          <mxGeometry x="800" y="1000" width="100" height="40" as="geometry" />
        </mxCell>
        <mxCell id="-1BbnuGMBv0PjYFlIGcD-107" style="rounded=0;orthogonalLoop=1;jettySize=auto;html=1;exitX=1;exitY=0.5;exitDx=0;exitDy=0;strokeColor=default;endArrow=none;endFill=0;entryX=0;entryY=0.5;entryDx=0;entryDy=0;" edge="1" parent="fgYCP7O1cczUKFr2x7Ze-573" source="-1BbnuGMBv0PjYFlIGcD-92" target="-1BbnuGMBv0PjYFlIGcD-101">
          <mxGeometry relative="1" as="geometry">
            <mxPoint x="506" y="-1042" as="sourcePoint" />
            <mxPoint x="666" y="1110" as="targetPoint" />
          </mxGeometry>
        </mxCell>
        <mxCell id="-1BbnuGMBv0PjYFlIGcD-102" value="电流" style="ellipse;whiteSpace=wrap;html=1;align=center;fontStyle=4;rounded=0;sketch=0;fillColor=none;" vertex="1" parent="fgYCP7O1cczUKFr2x7Ze-573">
          <mxGeometry x="800" y="1040" width="100" height="40" as="geometry" />
        </mxCell>
        <mxCell id="-1BbnuGMBv0PjYFlIGcD-106" style="rounded=0;orthogonalLoop=1;jettySize=auto;html=1;exitX=1;exitY=0.5;exitDx=0;exitDy=0;entryX=0;entryY=0.5;entryDx=0;entryDy=0;strokeColor=default;endArrow=none;endFill=0;" edge="1" parent="fgYCP7O1cczUKFr2x7Ze-573" source="-1BbnuGMBv0PjYFlIGcD-92" target="-1BbnuGMBv0PjYFlIGcD-102">
          <mxGeometry relative="1" as="geometry">
            <mxPoint x="416" y="-930" as="sourcePoint" />
            <mxPoint x="561" y="-968" as="targetPoint" />
          </mxGeometry>
        </mxCell>
        <mxCell id="-1BbnuGMBv0PjYFlIGcD-103" value="电压" style="ellipse;whiteSpace=wrap;html=1;align=center;fontStyle=4;rounded=0;sketch=0;fillColor=none;" vertex="1" parent="fgYCP7O1cczUKFr2x7Ze-573">
          <mxGeometry x="811" y="1090" width="100" height="40" as="geometry" />
        </mxCell>
        <mxCell id="-1BbnuGMBv0PjYFlIGcD-105" style="rounded=0;orthogonalLoop=1;jettySize=auto;html=1;entryX=0;entryY=0.5;entryDx=0;entryDy=0;strokeColor=default;endArrow=none;endFill=0;exitX=1;exitY=0.5;exitDx=0;exitDy=0;" edge="1" parent="fgYCP7O1cczUKFr2x7Ze-573" source="-1BbnuGMBv0PjYFlIGcD-92" target="-1BbnuGMBv0PjYFlIGcD-103">
          <mxGeometry relative="1" as="geometry">
            <mxPoint x="506" y="-1100" as="sourcePoint" />
            <mxPoint x="551" y="-900" as="targetPoint" />
          </mxGeometry>
        </mxCell>
        <mxCell id="-1BbnuGMBv0PjYFlIGcD-104" value="功率因数" style="ellipse;whiteSpace=wrap;html=1;align=center;fontStyle=4;rounded=0;sketch=0;fillColor=none;" vertex="1" parent="fgYCP7O1cczUKFr2x7Ze-573">
          <mxGeometry x="806" y="1140" width="100" height="40" as="geometry" />
        </mxCell>
        <mxCell id="-1BbnuGMBv0PjYFlIGcD-108" style="rounded=0;orthogonalLoop=1;jettySize=auto;html=1;entryX=0;entryY=0.5;entryDx=0;entryDy=0;strokeColor=default;endArrow=none;endFill=0;exitX=1;exitY=0.5;exitDx=0;exitDy=0;" edge="1" parent="fgYCP7O1cczUKFr2x7Ze-573" source="-1BbnuGMBv0PjYFlIGcD-92" target="-1BbnuGMBv0PjYFlIGcD-104">
          <mxGeometry relative="1" as="geometry">
            <mxPoint x="506" y="-1100" as="sourcePoint" />
            <mxPoint x="646" y="-960" as="targetPoint" />
          </mxGeometry>
        </mxCell>
        <mxCell id="-1BbnuGMBv0PjYFlIGcD-109" value="" style="endArrow=none;html=1;rounded=0;entryX=0.5;entryY=0;entryDx=0;entryDy=0;exitX=0.5;exitY=1;exitDx=0;exitDy=0;" edge="1" parent="fgYCP7O1cczUKFr2x7Ze-573" source="-1BbnuGMBv0PjYFlIGcD-60" target="-1BbnuGMBv0PjYFlIGcD-92">
          <mxGeometry width="50" height="50" relative="1" as="geometry">
            <mxPoint x="596" y="730" as="sourcePoint" />
            <mxPoint x="596" y="510" as="targetPoint" />
          </mxGeometry>
        </mxCell>
        <mxCell id="-1BbnuGMBv0PjYFlIGcD-110" value="1" style="edgeLabel;html=1;align=center;verticalAlign=middle;resizable=0;points=[];" vertex="1" connectable="0" parent="-1BbnuGMBv0PjYFlIGcD-109">
          <mxGeometry x="-0.7517" y="-3" relative="1" as="geometry">
            <mxPoint as="offset" />
          </mxGeometry>
        </mxCell>
        <mxCell id="-1BbnuGMBv0PjYFlIGcD-111" value="0..n" style="edgeLabel;html=1;align=center;verticalAlign=middle;resizable=0;points=[];" vertex="1" connectable="0" parent="-1BbnuGMBv0PjYFlIGcD-109">
          <mxGeometry x="0.7034" y="3" relative="1" as="geometry">
            <mxPoint as="offset" />
          </mxGeometry>
        </mxCell>
        <mxCell id="fgYCP7O1cczUKFr2x7Ze-519" value="名称" style="ellipse;whiteSpace=wrap;html=1;" parent="fgYCP7O1cczUKFr2x7Ze-573" vertex="1">
          <mxGeometry x="60" y="385.5" width="80" height="40" as="geometry" />
        </mxCell>
        <mxCell id="fgYCP7O1cczUKFr2x7Ze-520" value="" style="endArrow=none;html=1;rounded=0;entryX=0.5;entryY=1;entryDx=0;entryDy=0;exitX=0;exitY=0.5;exitDx=0;exitDy=0;" parent="fgYCP7O1cczUKFr2x7Ze-573" source="fgYCP7O1cczUKFr2x7Ze-518" target="fgYCP7O1cczUKFr2x7Ze-519" edge="1">
          <mxGeometry width="50" height="50" relative="1" as="geometry">
            <mxPoint x="250" y="465.5" as="sourcePoint" />
            <mxPoint x="650" y="40.5" as="targetPoint" />
          </mxGeometry>
        </mxCell>
        <mxCell id="-1BbnuGMBv0PjYFlIGcD-189" value="电表位置能耗统计记录" style="whiteSpace=wrap;html=1;align=center;rounded=0;sketch=0;fillColor=none;" vertex="1" parent="fgYCP7O1cczUKFr2x7Ze-573">
          <mxGeometry x="200" y="775" width="100" height="50" as="geometry" />
        </mxCell>
        <mxCell id="-1BbnuGMBv0PjYFlIGcD-208" value="" style="endArrow=none;html=1;rounded=0;entryX=0.5;entryY=0;entryDx=0;entryDy=0;exitX=0.5;exitY=1;exitDx=0;exitDy=0;" edge="1" parent="fgYCP7O1cczUKFr2x7Ze-573" source="fgYCP7O1cczUKFr2x7Ze-518" target="-1BbnuGMBv0PjYFlIGcD-189">
          <mxGeometry width="50" height="50" relative="1" as="geometry">
            <mxPoint x="380" y="485.5" as="sourcePoint" />
            <mxPoint x="596" y="469.5" as="targetPoint" />
          </mxGeometry>
        </mxCell>
        <mxCell id="-1BbnuGMBv0PjYFlIGcD-209" value="1" style="edgeLabel;html=1;align=center;verticalAlign=middle;resizable=0;points=[];" vertex="1" connectable="0" parent="-1BbnuGMBv0PjYFlIGcD-208">
          <mxGeometry x="-0.7517" y="-3" relative="1" as="geometry">
            <mxPoint as="offset" />
          </mxGeometry>
        </mxCell>
        <mxCell id="-1BbnuGMBv0PjYFlIGcD-210" value="0..n" style="edgeLabel;html=1;align=center;verticalAlign=middle;resizable=0;points=[];" vertex="1" connectable="0" parent="-1BbnuGMBv0PjYFlIGcD-208">
          <mxGeometry x="0.7034" y="3" relative="1" as="geometry">
            <mxPoint as="offset" />
          </mxGeometry>
        </mxCell>
        <mxCell id="-1BbnuGMBv0PjYFlIGcD-211" value="本次电表抄表记录id" style="ellipse;whiteSpace=wrap;html=1;align=center;fontStyle=4;rounded=0;sketch=0;fillColor=none;" vertex="1" parent="fgYCP7O1cczUKFr2x7Ze-573">
          <mxGeometry x="430" y="770" width="100" height="40" as="geometry" />
        </mxCell>
        <mxCell id="-1BbnuGMBv0PjYFlIGcD-213" value="上次电表抄表记录id" style="ellipse;whiteSpace=wrap;html=1;align=center;fontStyle=4;rounded=0;sketch=0;fillColor=none;" vertex="1" parent="fgYCP7O1cczUKFr2x7Ze-573">
          <mxGeometry x="440" y="830" width="100" height="40" as="geometry" />
        </mxCell>
        <mxCell id="-1BbnuGMBv0PjYFlIGcD-191" style="rounded=0;orthogonalLoop=1;jettySize=auto;html=1;entryX=0;entryY=0.5;entryDx=0;entryDy=0;strokeColor=default;endArrow=none;endFill=0;exitX=1;exitY=0.5;exitDx=0;exitDy=0;" edge="1" parent="fgYCP7O1cczUKFr2x7Ze-573" source="-1BbnuGMBv0PjYFlIGcD-189" target="-1BbnuGMBv0PjYFlIGcD-211">
          <mxGeometry relative="1" as="geometry">
            <mxPoint x="296" y="320" as="sourcePoint" />
            <mxPoint x="416" y="800" as="targetPoint" />
          </mxGeometry>
        </mxCell>
        <mxCell id="-1BbnuGMBv0PjYFlIGcD-192" style="rounded=0;orthogonalLoop=1;jettySize=auto;html=1;entryX=0;entryY=0.5;entryDx=0;entryDy=0;strokeColor=default;endArrow=none;endFill=0;exitX=1;exitY=0.5;exitDx=0;exitDy=0;" edge="1" parent="fgYCP7O1cczUKFr2x7Ze-573" source="-1BbnuGMBv0PjYFlIGcD-189" target="-1BbnuGMBv0PjYFlIGcD-213">
          <mxGeometry relative="1" as="geometry">
            <mxPoint x="296" y="320" as="sourcePoint" />
            <mxPoint x="416" y="860" as="targetPoint" />
          </mxGeometry>
        </mxCell>
        <mxCell id="-1BbnuGMBv0PjYFlIGcD-194" value="倍率" style="ellipse;whiteSpace=wrap;html=1;align=center;fontStyle=4;rounded=0;sketch=0;fillColor=none;" vertex="1" parent="fgYCP7O1cczUKFr2x7Ze-573">
          <mxGeometry x="430" y="880" width="100" height="40" as="geometry" />
        </mxCell>
        <mxCell id="-1BbnuGMBv0PjYFlIGcD-201" style="rounded=0;orthogonalLoop=1;jettySize=auto;html=1;entryX=0;entryY=0.5;entryDx=0;entryDy=0;strokeColor=default;endArrow=none;endFill=0;exitX=1;exitY=0.5;exitDx=0;exitDy=0;" edge="1" parent="fgYCP7O1cczUKFr2x7Ze-573" source="-1BbnuGMBv0PjYFlIGcD-189" target="-1BbnuGMBv0PjYFlIGcD-194">
          <mxGeometry relative="1" as="geometry">
            <mxPoint x="316" y="920" as="sourcePoint" />
            <mxPoint x="426" y="830" as="targetPoint" />
          </mxGeometry>
        </mxCell>
        <mxCell id="-1BbnuGMBv0PjYFlIGcD-195" value="电量" style="ellipse;whiteSpace=wrap;html=1;align=center;fontStyle=4;rounded=0;sketch=0;fillColor=none;" vertex="1" parent="fgYCP7O1cczUKFr2x7Ze-573">
          <mxGeometry x="430" y="935" width="100" height="40" as="geometry" />
        </mxCell>
        <mxCell id="-1BbnuGMBv0PjYFlIGcD-202" style="rounded=0;orthogonalLoop=1;jettySize=auto;html=1;entryX=0;entryY=0.5;entryDx=0;entryDy=0;strokeColor=default;endArrow=none;endFill=0;exitX=1;exitY=0.5;exitDx=0;exitDy=0;" edge="1" parent="fgYCP7O1cczUKFr2x7Ze-573" source="-1BbnuGMBv0PjYFlIGcD-189" target="-1BbnuGMBv0PjYFlIGcD-195">
          <mxGeometry relative="1" as="geometry">
            <mxPoint x="316" y="920" as="sourcePoint" />
            <mxPoint x="416" y="920" as="targetPoint" />
          </mxGeometry>
        </mxCell>
        <mxCell id="-1BbnuGMBv0PjYFlIGcD-196" value="分摊电量" style="ellipse;whiteSpace=wrap;html=1;align=center;fontStyle=4;rounded=0;sketch=0;fillColor=none;" vertex="1" parent="fgYCP7O1cczUKFr2x7Ze-573">
          <mxGeometry x="430" y="995" width="100" height="40" as="geometry" />
        </mxCell>
        <mxCell id="-1BbnuGMBv0PjYFlIGcD-203" style="rounded=0;orthogonalLoop=1;jettySize=auto;html=1;entryX=0.01;entryY=0.325;entryDx=0;entryDy=0;strokeColor=default;endArrow=none;endFill=0;exitX=1;exitY=0.5;exitDx=0;exitDy=0;entryPerimeter=0;" edge="1" parent="fgYCP7O1cczUKFr2x7Ze-573" source="-1BbnuGMBv0PjYFlIGcD-189" target="-1BbnuGMBv0PjYFlIGcD-196">
          <mxGeometry relative="1" as="geometry">
            <mxPoint x="316" y="920" as="sourcePoint" />
            <mxPoint x="436" y="950" as="targetPoint" />
          </mxGeometry>
        </mxCell>
        <mxCell id="-1BbnuGMBv0PjYFlIGcD-197" value="最大功率" style="ellipse;whiteSpace=wrap;html=1;align=center;fontStyle=4;rounded=0;sketch=0;fillColor=none;" vertex="1" parent="fgYCP7O1cczUKFr2x7Ze-573">
          <mxGeometry x="430" y="1050" width="100" height="40" as="geometry" />
        </mxCell>
        <mxCell id="-1BbnuGMBv0PjYFlIGcD-204" style="rounded=0;orthogonalLoop=1;jettySize=auto;html=1;entryX=0;entryY=0.5;entryDx=0;entryDy=0;strokeColor=default;endArrow=none;endFill=0;exitX=1;exitY=0.5;exitDx=0;exitDy=0;" edge="1" parent="fgYCP7O1cczUKFr2x7Ze-573" source="-1BbnuGMBv0PjYFlIGcD-189" target="-1BbnuGMBv0PjYFlIGcD-197">
          <mxGeometry relative="1" as="geometry">
            <mxPoint x="316" y="920" as="sourcePoint" />
            <mxPoint x="422" y="1030" as="targetPoint" />
          </mxGeometry>
        </mxCell>
        <mxCell id="-1BbnuGMBv0PjYFlIGcD-198" value="最大电流" style="ellipse;whiteSpace=wrap;html=1;align=center;fontStyle=4;rounded=0;sketch=0;fillColor=none;" vertex="1" parent="fgYCP7O1cczUKFr2x7Ze-573">
          <mxGeometry x="430" y="1100" width="100" height="40" as="geometry" />
        </mxCell>
        <mxCell id="-1BbnuGMBv0PjYFlIGcD-205" style="rounded=0;orthogonalLoop=1;jettySize=auto;html=1;entryX=0;entryY=0.5;entryDx=0;entryDy=0;strokeColor=default;endArrow=none;endFill=0;exitX=1;exitY=0.5;exitDx=0;exitDy=0;" edge="1" parent="fgYCP7O1cczUKFr2x7Ze-573" source="-1BbnuGMBv0PjYFlIGcD-189" target="-1BbnuGMBv0PjYFlIGcD-198">
          <mxGeometry relative="1" as="geometry">
            <mxPoint x="316" y="920" as="sourcePoint" />
            <mxPoint x="421" y="1080" as="targetPoint" />
          </mxGeometry>
        </mxCell>
        <mxCell id="-1BbnuGMBv0PjYFlIGcD-199" value="最大电压" style="ellipse;whiteSpace=wrap;html=1;align=center;fontStyle=4;rounded=0;sketch=0;fillColor=none;" vertex="1" parent="fgYCP7O1cczUKFr2x7Ze-573">
          <mxGeometry x="430" y="1154" width="100" height="40" as="geometry" />
        </mxCell>
        <mxCell id="-1BbnuGMBv0PjYFlIGcD-206" style="rounded=0;orthogonalLoop=1;jettySize=auto;html=1;strokeColor=default;endArrow=none;endFill=0;exitX=1;exitY=0.5;exitDx=0;exitDy=0;entryX=0.02;entryY=0.675;entryDx=0;entryDy=0;entryPerimeter=0;" edge="1" parent="fgYCP7O1cczUKFr2x7Ze-573" source="-1BbnuGMBv0PjYFlIGcD-189" target="-1BbnuGMBv0PjYFlIGcD-199">
          <mxGeometry relative="1" as="geometry">
            <mxPoint x="316" y="920" as="sourcePoint" />
            <mxPoint x="416" y="1190" as="targetPoint" />
          </mxGeometry>
        </mxCell>
        <mxCell id="-1BbnuGMBv0PjYFlIGcD-200" value="平均功率因数" style="ellipse;whiteSpace=wrap;html=1;align=center;fontStyle=4;rounded=0;sketch=0;fillColor=none;" vertex="1" parent="fgYCP7O1cczUKFr2x7Ze-573">
          <mxGeometry x="430" y="1220" width="100" height="40" as="geometry" />
        </mxCell>
        <mxCell id="-1BbnuGMBv0PjYFlIGcD-207" style="rounded=0;orthogonalLoop=1;jettySize=auto;html=1;strokeColor=default;endArrow=none;endFill=0;exitX=1;exitY=0.5;exitDx=0;exitDy=0;entryX=0;entryY=0.5;entryDx=0;entryDy=0;" edge="1" parent="fgYCP7O1cczUKFr2x7Ze-573" source="-1BbnuGMBv0PjYFlIGcD-189" target="-1BbnuGMBv0PjYFlIGcD-200">
          <mxGeometry relative="1" as="geometry">
            <mxPoint x="316" y="920" as="sourcePoint" />
            <mxPoint x="416" y="1250" as="targetPoint" />
          </mxGeometry>
        </mxCell>
        <mxCell id="-1BbnuGMBv0PjYFlIGcD-238" value="表位置分组" style="rounded=0;whiteSpace=wrap;html=1;" vertex="1" parent="fgYCP7O1cczUKFr2x7Ze-573">
          <mxGeometry x="145" y="1380" width="120" height="50" as="geometry" />
        </mxCell>
        <mxCell id="-1BbnuGMBv0PjYFlIGcD-228" value="电表分组能耗统计记录" style="whiteSpace=wrap;html=1;align=center;rounded=0;sketch=0;fillColor=none;" vertex="1" parent="fgYCP7O1cczUKFr2x7Ze-573">
          <mxGeometry x="140" y="1580" width="130" height="40" as="geometry" />
        </mxCell>
        <mxCell id="-1BbnuGMBv0PjYFlIGcD-234" style="rounded=0;orthogonalLoop=1;jettySize=auto;html=1;strokeColor=default;endArrow=none;endFill=0;entryX=0.5;entryY=1;entryDx=0;entryDy=0;" edge="1" parent="fgYCP7O1cczUKFr2x7Ze-573" source="-1BbnuGMBv0PjYFlIGcD-228" target="-1BbnuGMBv0PjYFlIGcD-238">
          <mxGeometry relative="1" as="geometry">
            <mxPoint x="310" y="1635" as="sourcePoint" />
            <mxPoint x="210" y="1430" as="targetPoint" />
          </mxGeometry>
        </mxCell>
        <mxCell id="-1BbnuGMBv0PjYFlIGcD-240" value="1" style="edgeLabel;html=1;align=center;verticalAlign=middle;resizable=0;points=[];" vertex="1" connectable="0" parent="-1BbnuGMBv0PjYFlIGcD-234">
          <mxGeometry x="0.8125" y="-1" relative="1" as="geometry">
            <mxPoint as="offset" />
          </mxGeometry>
        </mxCell>
        <mxCell id="-1BbnuGMBv0PjYFlIGcD-241" value="0..n" style="edgeLabel;html=1;align=center;verticalAlign=middle;resizable=0;points=[];" vertex="1" connectable="0" parent="-1BbnuGMBv0PjYFlIGcD-234">
          <mxGeometry x="-0.8134" y="-4" relative="1" as="geometry">
            <mxPoint as="offset" />
          </mxGeometry>
        </mxCell>
        <mxCell id="-1BbnuGMBv0PjYFlIGcD-235" value="统计类别(按小时、日、月统计)" style="ellipse;whiteSpace=wrap;html=1;align=center;fontStyle=4;rounded=0;sketch=0;fillColor=none;" vertex="1" parent="fgYCP7O1cczUKFr2x7Ze-573">
          <mxGeometry x="369" y="1550" width="215" height="40" as="geometry" />
        </mxCell>
        <mxCell id="-1BbnuGMBv0PjYFlIGcD-239" style="rounded=0;orthogonalLoop=1;jettySize=auto;html=1;strokeColor=default;endArrow=none;endFill=0;exitX=1;exitY=0.5;exitDx=0;exitDy=0;entryX=0;entryY=0.5;entryDx=0;entryDy=0;" edge="1" parent="fgYCP7O1cczUKFr2x7Ze-573" source="-1BbnuGMBv0PjYFlIGcD-228" target="-1BbnuGMBv0PjYFlIGcD-235">
          <mxGeometry relative="1" as="geometry">
            <mxPoint x="270" y="1615" as="sourcePoint" />
            <mxPoint x="430" y="1510" as="targetPoint" />
          </mxGeometry>
        </mxCell>
        <mxCell id="-1BbnuGMBv0PjYFlIGcD-229" value="耗电量" style="ellipse;whiteSpace=wrap;html=1;align=center;fontStyle=4;rounded=0;sketch=0;fillColor=none;" vertex="1" parent="fgYCP7O1cczUKFr2x7Ze-573">
          <mxGeometry x="385" y="1610" width="100" height="40" as="geometry" />
        </mxCell>
        <mxCell id="-1BbnuGMBv0PjYFlIGcD-231" style="rounded=0;orthogonalLoop=1;jettySize=auto;html=1;strokeColor=default;endArrow=none;endFill=0;exitX=1;exitY=0.5;exitDx=0;exitDy=0;entryX=0;entryY=0.5;entryDx=0;entryDy=0;" edge="1" parent="fgYCP7O1cczUKFr2x7Ze-573" source="-1BbnuGMBv0PjYFlIGcD-228" target="-1BbnuGMBv0PjYFlIGcD-229">
          <mxGeometry relative="1" as="geometry">
            <mxPoint x="300" y="1705" as="sourcePoint" />
            <mxPoint x="405" y="1640" as="targetPoint" />
          </mxGeometry>
        </mxCell>
        <mxCell id="-1BbnuGMBv0PjYFlIGcD-236" value="统计时间" style="ellipse;whiteSpace=wrap;html=1;align=center;fontStyle=4;rounded=0;sketch=0;fillColor=none;" vertex="1" parent="fgYCP7O1cczUKFr2x7Ze-573">
          <mxGeometry x="370" y="1490" width="100" height="40" as="geometry" />
        </mxCell>
        <mxCell id="-1BbnuGMBv0PjYFlIGcD-230" style="rounded=0;orthogonalLoop=1;jettySize=auto;html=1;strokeColor=default;endArrow=none;endFill=0;exitX=1;exitY=0.5;exitDx=0;exitDy=0;entryX=0;entryY=0.5;entryDx=0;entryDy=0;" edge="1" parent="fgYCP7O1cczUKFr2x7Ze-573" source="-1BbnuGMBv0PjYFlIGcD-228" target="-1BbnuGMBv0PjYFlIGcD-236">
          <mxGeometry relative="1" as="geometry">
            <mxPoint x="300" y="1115" as="sourcePoint" />
            <mxPoint x="420" y="1580" as="targetPoint" />
          </mxGeometry>
        </mxCell>
        <mxCell id="-1BbnuGMBv0PjYFlIGcD-242" value="电费" style="ellipse;whiteSpace=wrap;html=1;align=center;fontStyle=4;rounded=0;sketch=0;fillColor=none;" vertex="1" parent="fgYCP7O1cczUKFr2x7Ze-573">
          <mxGeometry x="430" y="1270" width="100" height="40" as="geometry" />
        </mxCell>
        <mxCell id="-1BbnuGMBv0PjYFlIGcD-244" value="电费" style="ellipse;whiteSpace=wrap;html=1;align=center;fontStyle=4;rounded=0;sketch=0;fillColor=none;" vertex="1" parent="fgYCP7O1cczUKFr2x7Ze-573">
          <mxGeometry x="380" y="1670" width="100" height="40" as="geometry" />
        </mxCell>
        <mxCell id="-1BbnuGMBv0PjYFlIGcD-245" style="rounded=0;orthogonalLoop=1;jettySize=auto;html=1;strokeColor=default;endArrow=none;endFill=0;exitX=1;exitY=0.5;exitDx=0;exitDy=0;entryX=0;entryY=0.5;entryDx=0;entryDy=0;" edge="1" parent="fgYCP7O1cczUKFr2x7Ze-573" source="-1BbnuGMBv0PjYFlIGcD-228" target="-1BbnuGMBv0PjYFlIGcD-244">
          <mxGeometry relative="1" as="geometry">
            <mxPoint x="280" y="1610" as="sourcePoint" />
            <mxPoint x="395" y="1640" as="targetPoint" />
          </mxGeometry>
        </mxCell>
        <mxCell id="-1BbnuGMBv0PjYFlIGcD-187" value="统计类别(按小时、日、月统计)" style="ellipse;whiteSpace=wrap;html=1;align=center;fontStyle=4;rounded=0;sketch=0;fillColor=none;" vertex="1" parent="fgYCP7O1cczUKFr2x7Ze-573">
          <mxGeometry x="360" y="710" width="215" height="40" as="geometry" />
        </mxCell>
        <mxCell id="-1BbnuGMBv0PjYFlIGcD-193" style="rounded=0;orthogonalLoop=1;jettySize=auto;html=1;entryX=0;entryY=0.5;entryDx=0;entryDy=0;strokeColor=default;endArrow=none;endFill=0;exitX=1;exitY=0.5;exitDx=0;exitDy=0;" edge="1" parent="fgYCP7O1cczUKFr2x7Ze-573" source="-1BbnuGMBv0PjYFlIGcD-189" target="-1BbnuGMBv0PjYFlIGcD-187">
          <mxGeometry relative="1" as="geometry">
            <mxPoint x="96" y="365" as="sourcePoint" />
            <mxPoint x="216" y="280" as="targetPoint" />
          </mxGeometry>
        </mxCell>
        <mxCell id="-1BbnuGMBv0PjYFlIGcD-188" value="统计时间" style="ellipse;whiteSpace=wrap;html=1;align=center;fontStyle=4;rounded=0;sketch=0;fillColor=none;" vertex="1" parent="fgYCP7O1cczUKFr2x7Ze-573">
          <mxGeometry x="380" y="620" width="100" height="40" as="geometry" />
        </mxCell>
        <mxCell id="-1BbnuGMBv0PjYFlIGcD-190" style="rounded=0;orthogonalLoop=1;jettySize=auto;html=1;entryX=0;entryY=0.5;entryDx=0;entryDy=0;strokeColor=default;endArrow=none;endFill=0;exitX=1;exitY=0.5;exitDx=0;exitDy=0;" edge="1" parent="fgYCP7O1cczUKFr2x7Ze-573" source="-1BbnuGMBv0PjYFlIGcD-189" target="-1BbnuGMBv0PjYFlIGcD-188">
          <mxGeometry relative="1" as="geometry">
            <mxPoint x="116" y="-181" as="sourcePoint" />
            <mxPoint x="202.5" y="100" as="targetPoint" />
          </mxGeometry>
        </mxCell>
        <mxCell id="-1BbnuGMBv0PjYFlIGcD-243" style="rounded=0;orthogonalLoop=1;jettySize=auto;html=1;strokeColor=default;endArrow=none;endFill=0;entryX=0;entryY=0.5;entryDx=0;entryDy=0;exitX=1;exitY=0.5;exitDx=0;exitDy=0;" edge="1" parent="fgYCP7O1cczUKFr2x7Ze-573" source="-1BbnuGMBv0PjYFlIGcD-189" target="-1BbnuGMBv0PjYFlIGcD-242">
          <mxGeometry relative="1" as="geometry">
            <mxPoint x="110" y="840" as="sourcePoint" />
            <mxPoint x="250" y="1290" as="targetPoint" />
          </mxGeometry>
        </mxCell>
        <mxCell id="-1BbnuGMBv0PjYFlIGcD-246" value="水表模块" style="swimlane;align=left;spacingLeft=20;container=1;" vertex="1" parent="1">
          <mxGeometry x="30" y="2550" width="1720" height="1550" as="geometry" />
        </mxCell>
        <mxCell id="-1BbnuGMBv0PjYFlIGcD-247" value="表位置绑定记录" style="rounded=0;whiteSpace=wrap;html=1;" vertex="1" parent="-1BbnuGMBv0PjYFlIGcD-246">
          <mxGeometry x="586" y="434.5" width="120" height="50" as="geometry" />
        </mxCell>
        <mxCell id="-1BbnuGMBv0PjYFlIGcD-250" value="设备id" style="ellipse;whiteSpace=wrap;html=1;" vertex="1" parent="-1BbnuGMBv0PjYFlIGcD-246">
          <mxGeometry x="275" y="195" width="70" height="40" as="geometry" />
        </mxCell>
        <mxCell id="-1BbnuGMBv0PjYFlIGcD-251" value="类型(水表、分类)" style="ellipse;whiteSpace=wrap;html=1;" vertex="1" parent="-1BbnuGMBv0PjYFlIGcD-246">
          <mxGeometry x="70" y="333" width="120" height="40" as="geometry" />
        </mxCell>
        <mxCell id="-1BbnuGMBv0PjYFlIGcD-252" value="种类&lt;br&gt;(新水、回水、排放水、其他)" style="ellipse;whiteSpace=wrap;html=1;" vertex="1" parent="-1BbnuGMBv0PjYFlIGcD-246">
          <mxGeometry x="100" y="275" width="120" height="50" as="geometry" />
        </mxCell>
        <mxCell id="-1BbnuGMBv0PjYFlIGcD-253" value="位置" style="ellipse;whiteSpace=wrap;html=1;" vertex="1" parent="-1BbnuGMBv0PjYFlIGcD-246">
          <mxGeometry x="200" y="220" width="80" height="40" as="geometry" />
        </mxCell>
        <mxCell id="-1BbnuGMBv0PjYFlIGcD-254" value="工段" style="ellipse;whiteSpace=wrap;html=1;" vertex="1" parent="-1BbnuGMBv0PjYFlIGcD-246">
          <mxGeometry x="360" y="195" width="70" height="40" as="geometry" />
        </mxCell>
        <mxCell id="-1BbnuGMBv0PjYFlIGcD-255" value="倍率" style="ellipse;whiteSpace=wrap;html=1;" vertex="1" parent="-1BbnuGMBv0PjYFlIGcD-246">
          <mxGeometry x="400" y="235" width="70" height="40" as="geometry" />
        </mxCell>
        <mxCell id="-1BbnuGMBv0PjYFlIGcD-256" value="备注" style="ellipse;whiteSpace=wrap;html=1;" vertex="1" parent="-1BbnuGMBv0PjYFlIGcD-246">
          <mxGeometry x="450" y="280" width="80" height="40" as="geometry" />
        </mxCell>
        <mxCell id="-1BbnuGMBv0PjYFlIGcD-257" value="父节点" style="ellipse;whiteSpace=wrap;html=1;" vertex="1" parent="-1BbnuGMBv0PjYFlIGcD-246">
          <mxGeometry x="470" y="320" width="80" height="40" as="geometry" />
        </mxCell>
        <mxCell id="-1BbnuGMBv0PjYFlIGcD-258" value="水表位置" style="rounded=0;whiteSpace=wrap;html=1;" vertex="1" parent="-1BbnuGMBv0PjYFlIGcD-246">
          <mxGeometry x="210" y="420" width="120" height="50" as="geometry" />
        </mxCell>
        <mxCell id="-1BbnuGMBv0PjYFlIGcD-259" value="" style="endArrow=none;html=1;rounded=0;exitX=0.5;exitY=0;exitDx=0;exitDy=0;" edge="1" parent="-1BbnuGMBv0PjYFlIGcD-246" source="-1BbnuGMBv0PjYFlIGcD-258" target="-1BbnuGMBv0PjYFlIGcD-252">
          <mxGeometry width="50" height="50" relative="1" as="geometry">
            <mxPoint x="190" y="35.5" as="sourcePoint" />
            <mxPoint x="350" y="-179.5" as="targetPoint" />
          </mxGeometry>
        </mxCell>
        <mxCell id="-1BbnuGMBv0PjYFlIGcD-260" value="" style="endArrow=none;html=1;rounded=0;entryX=0.5;entryY=1;entryDx=0;entryDy=0;exitX=0.5;exitY=0;exitDx=0;exitDy=0;" edge="1" parent="-1BbnuGMBv0PjYFlIGcD-246" source="-1BbnuGMBv0PjYFlIGcD-258" target="-1BbnuGMBv0PjYFlIGcD-253">
          <mxGeometry width="50" height="50" relative="1" as="geometry">
            <mxPoint x="190" y="35.5" as="sourcePoint" />
            <mxPoint x="350" y="-109.5" as="targetPoint" />
          </mxGeometry>
        </mxCell>
        <mxCell id="-1BbnuGMBv0PjYFlIGcD-261" value="" style="endArrow=none;html=1;rounded=0;entryX=0;entryY=1;entryDx=0;entryDy=0;exitX=0.5;exitY=0;exitDx=0;exitDy=0;" edge="1" parent="-1BbnuGMBv0PjYFlIGcD-246" source="-1BbnuGMBv0PjYFlIGcD-258" target="-1BbnuGMBv0PjYFlIGcD-254">
          <mxGeometry width="50" height="50" relative="1" as="geometry">
            <mxPoint x="310" y="440.5" as="sourcePoint" />
            <mxPoint x="360" y="-39.5" as="targetPoint" />
          </mxGeometry>
        </mxCell>
        <mxCell id="-1BbnuGMBv0PjYFlIGcD-262" value="" style="endArrow=none;html=1;rounded=0;exitX=0.5;exitY=0;exitDx=0;exitDy=0;entryX=0.058;entryY=0.8;entryDx=0;entryDy=0;entryPerimeter=0;" edge="1" parent="-1BbnuGMBv0PjYFlIGcD-246" source="-1BbnuGMBv0PjYFlIGcD-258" target="-1BbnuGMBv0PjYFlIGcD-255">
          <mxGeometry width="50" height="50" relative="1" as="geometry">
            <mxPoint x="190" y="35.5" as="sourcePoint" />
            <mxPoint x="360" y="10.5" as="targetPoint" />
          </mxGeometry>
        </mxCell>
        <mxCell id="-1BbnuGMBv0PjYFlIGcD-263" value="" style="endArrow=none;html=1;rounded=0;exitX=0.5;exitY=0;exitDx=0;exitDy=0;entryX=0;entryY=1;entryDx=0;entryDy=0;" edge="1" parent="-1BbnuGMBv0PjYFlIGcD-246" source="-1BbnuGMBv0PjYFlIGcD-258" target="-1BbnuGMBv0PjYFlIGcD-256">
          <mxGeometry width="50" height="50" relative="1" as="geometry">
            <mxPoint x="180" y="25.5" as="sourcePoint" />
            <mxPoint x="380" y="140.5" as="targetPoint" />
          </mxGeometry>
        </mxCell>
        <mxCell id="-1BbnuGMBv0PjYFlIGcD-264" value="" style="endArrow=none;html=1;rounded=0;entryX=0.5;entryY=1;entryDx=0;entryDy=0;exitX=0.5;exitY=0;exitDx=0;exitDy=0;" edge="1" parent="-1BbnuGMBv0PjYFlIGcD-246" source="-1BbnuGMBv0PjYFlIGcD-258" target="-1BbnuGMBv0PjYFlIGcD-257">
          <mxGeometry width="50" height="50" relative="1" as="geometry">
            <mxPoint x="190" y="35.5" as="sourcePoint" />
            <mxPoint x="370" y="110.5" as="targetPoint" />
          </mxGeometry>
        </mxCell>
        <mxCell id="-1BbnuGMBv0PjYFlIGcD-265" value="" style="endArrow=none;html=1;rounded=0;entryX=0.5;entryY=1;entryDx=0;entryDy=0;exitX=0.5;exitY=0;exitDx=0;exitDy=0;" edge="1" parent="-1BbnuGMBv0PjYFlIGcD-246" source="-1BbnuGMBv0PjYFlIGcD-258" target="-1BbnuGMBv0PjYFlIGcD-250">
          <mxGeometry width="50" height="50" relative="1" as="geometry">
            <mxPoint x="160" y="25.5" as="sourcePoint" />
            <mxPoint x="360" y="323" as="targetPoint" />
          </mxGeometry>
        </mxCell>
        <mxCell id="-1BbnuGMBv0PjYFlIGcD-266" value="" style="endArrow=none;html=1;rounded=0;entryX=0.5;entryY=1;entryDx=0;entryDy=0;exitX=0.5;exitY=0;exitDx=0;exitDy=0;" edge="1" parent="-1BbnuGMBv0PjYFlIGcD-246" source="-1BbnuGMBv0PjYFlIGcD-258" target="-1BbnuGMBv0PjYFlIGcD-251">
          <mxGeometry width="50" height="50" relative="1" as="geometry">
            <mxPoint x="150" y="20.5" as="sourcePoint" />
            <mxPoint x="350" y="-109.5" as="targetPoint" />
          </mxGeometry>
        </mxCell>
        <mxCell id="-1BbnuGMBv0PjYFlIGcD-267" value="" style="endArrow=none;html=1;rounded=0;entryX=0;entryY=0.5;entryDx=0;entryDy=0;exitX=1;exitY=0.5;exitDx=0;exitDy=0;" edge="1" parent="-1BbnuGMBv0PjYFlIGcD-246" source="-1BbnuGMBv0PjYFlIGcD-258" target="-1BbnuGMBv0PjYFlIGcD-247">
          <mxGeometry width="50" height="50" relative="1" as="geometry">
            <mxPoint x="230" y="515" as="sourcePoint" />
            <mxPoint x="360" y="460" as="targetPoint" />
          </mxGeometry>
        </mxCell>
        <mxCell id="-1BbnuGMBv0PjYFlIGcD-268" value="1" style="edgeLabel;html=1;align=center;verticalAlign=middle;resizable=0;points=[];" vertex="1" connectable="0" parent="-1BbnuGMBv0PjYFlIGcD-267">
          <mxGeometry x="-0.7517" y="-3" relative="1" as="geometry">
            <mxPoint as="offset" />
          </mxGeometry>
        </mxCell>
        <mxCell id="-1BbnuGMBv0PjYFlIGcD-269" value="0..n" style="edgeLabel;html=1;align=center;verticalAlign=middle;resizable=0;points=[];" vertex="1" connectable="0" parent="-1BbnuGMBv0PjYFlIGcD-267">
          <mxGeometry x="0.7034" y="3" relative="1" as="geometry">
            <mxPoint as="offset" />
          </mxGeometry>
        </mxCell>
        <mxCell id="-1BbnuGMBv0PjYFlIGcD-270" value="在线状态" style="ellipse;whiteSpace=wrap;html=1;" vertex="1" parent="-1BbnuGMBv0PjYFlIGcD-246">
          <mxGeometry x="811" y="790" width="120" height="40" as="geometry" />
        </mxCell>
        <mxCell id="-1BbnuGMBv0PjYFlIGcD-271" value="种类&lt;br&gt;(新水、回水、排放水、其他)" style="ellipse;whiteSpace=wrap;html=1;" vertex="1" parent="-1BbnuGMBv0PjYFlIGcD-246">
          <mxGeometry x="816" y="740" width="120" height="40" as="geometry" />
        </mxCell>
        <mxCell id="-1BbnuGMBv0PjYFlIGcD-272" value="倍率" style="ellipse;whiteSpace=wrap;html=1;" vertex="1" parent="-1BbnuGMBv0PjYFlIGcD-246">
          <mxGeometry x="816" y="690" width="120" height="40" as="geometry" />
        </mxCell>
        <mxCell id="-1BbnuGMBv0PjYFlIGcD-273" value="名称" style="ellipse;whiteSpace=wrap;html=1;" vertex="1" parent="-1BbnuGMBv0PjYFlIGcD-246">
          <mxGeometry x="780" y="580" width="120" height="40" as="geometry" />
        </mxCell>
        <mxCell id="-1BbnuGMBv0PjYFlIGcD-274" value="编号" style="ellipse;whiteSpace=wrap;html=1;" vertex="1" parent="-1BbnuGMBv0PjYFlIGcD-246">
          <mxGeometry x="816" y="640" width="110" height="40" as="geometry" />
        </mxCell>
        <mxCell id="-1BbnuGMBv0PjYFlIGcD-275" value="水表" style="rounded=0;whiteSpace=wrap;html=1;" vertex="1" parent="-1BbnuGMBv0PjYFlIGcD-246">
          <mxGeometry x="586" y="620" width="120" height="50" as="geometry" />
        </mxCell>
        <mxCell id="-1BbnuGMBv0PjYFlIGcD-276" value="" style="endArrow=none;html=1;rounded=0;entryX=0;entryY=0.5;entryDx=0;entryDy=0;exitX=1;exitY=0.5;exitDx=0;exitDy=0;" edge="1" parent="-1BbnuGMBv0PjYFlIGcD-246" source="-1BbnuGMBv0PjYFlIGcD-275" target="-1BbnuGMBv0PjYFlIGcD-270">
          <mxGeometry width="50" height="50" relative="1" as="geometry">
            <mxPoint x="696" y="175" as="sourcePoint" />
            <mxPoint x="766" y="210" as="targetPoint" />
          </mxGeometry>
        </mxCell>
        <mxCell id="-1BbnuGMBv0PjYFlIGcD-277" value="" style="endArrow=none;html=1;rounded=0;exitX=1;exitY=0.5;exitDx=0;exitDy=0;entryX=0;entryY=0.5;entryDx=0;entryDy=0;" edge="1" parent="-1BbnuGMBv0PjYFlIGcD-246" source="-1BbnuGMBv0PjYFlIGcD-275" target="-1BbnuGMBv0PjYFlIGcD-271">
          <mxGeometry width="50" height="50" relative="1" as="geometry">
            <mxPoint x="696" y="175" as="sourcePoint" />
            <mxPoint x="766" y="270" as="targetPoint" />
          </mxGeometry>
        </mxCell>
        <mxCell id="-1BbnuGMBv0PjYFlIGcD-278" value="" style="endArrow=none;html=1;rounded=0;entryX=0;entryY=0.5;entryDx=0;entryDy=0;exitX=1;exitY=0.5;exitDx=0;exitDy=0;" edge="1" parent="-1BbnuGMBv0PjYFlIGcD-246" source="-1BbnuGMBv0PjYFlIGcD-275" target="-1BbnuGMBv0PjYFlIGcD-272">
          <mxGeometry width="50" height="50" relative="1" as="geometry">
            <mxPoint x="696" y="175" as="sourcePoint" />
            <mxPoint x="766" y="140" as="targetPoint" />
          </mxGeometry>
        </mxCell>
        <mxCell id="-1BbnuGMBv0PjYFlIGcD-279" value="" style="endArrow=none;html=1;rounded=0;entryX=0;entryY=0.5;entryDx=0;entryDy=0;exitX=1;exitY=0.5;exitDx=0;exitDy=0;" edge="1" parent="-1BbnuGMBv0PjYFlIGcD-246" source="-1BbnuGMBv0PjYFlIGcD-275" target="-1BbnuGMBv0PjYFlIGcD-274">
          <mxGeometry width="50" height="50" relative="1" as="geometry">
            <mxPoint x="696" y="175" as="sourcePoint" />
            <mxPoint x="766" y="80" as="targetPoint" />
          </mxGeometry>
        </mxCell>
        <mxCell id="-1BbnuGMBv0PjYFlIGcD-280" value="" style="endArrow=none;html=1;rounded=0;entryX=0;entryY=0.5;entryDx=0;entryDy=0;exitX=1;exitY=0.5;exitDx=0;exitDy=0;" edge="1" parent="-1BbnuGMBv0PjYFlIGcD-246" source="-1BbnuGMBv0PjYFlIGcD-275" target="-1BbnuGMBv0PjYFlIGcD-273">
          <mxGeometry width="50" height="50" relative="1" as="geometry">
            <mxPoint x="686" y="165" as="sourcePoint" />
            <mxPoint x="766" y="30" as="targetPoint" />
          </mxGeometry>
        </mxCell>
        <mxCell id="-1BbnuGMBv0PjYFlIGcD-281" value="" style="endArrow=none;html=1;rounded=0;entryX=0.5;entryY=1;entryDx=0;entryDy=0;exitX=0.5;exitY=0;exitDx=0;exitDy=0;" edge="1" parent="-1BbnuGMBv0PjYFlIGcD-246" source="-1BbnuGMBv0PjYFlIGcD-275" target="-1BbnuGMBv0PjYFlIGcD-247">
          <mxGeometry width="50" height="50" relative="1" as="geometry">
            <mxPoint x="230" y="315" as="sourcePoint" />
            <mxPoint x="500" y="325" as="targetPoint" />
          </mxGeometry>
        </mxCell>
        <mxCell id="-1BbnuGMBv0PjYFlIGcD-282" value="1" style="edgeLabel;html=1;align=center;verticalAlign=middle;resizable=0;points=[];" vertex="1" connectable="0" parent="-1BbnuGMBv0PjYFlIGcD-281">
          <mxGeometry x="-0.7517" y="-3" relative="1" as="geometry">
            <mxPoint as="offset" />
          </mxGeometry>
        </mxCell>
        <mxCell id="-1BbnuGMBv0PjYFlIGcD-283" value="0..n" style="edgeLabel;html=1;align=center;verticalAlign=middle;resizable=0;points=[];" vertex="1" connectable="0" parent="-1BbnuGMBv0PjYFlIGcD-281">
          <mxGeometry x="0.7034" y="3" relative="1" as="geometry">
            <mxPoint as="offset" />
          </mxGeometry>
        </mxCell>
        <mxCell id="-1BbnuGMBv0PjYFlIGcD-291" value="水表抄表记录" style="whiteSpace=wrap;html=1;align=center;rounded=0;sketch=0;fillColor=none;" vertex="1" parent="-1BbnuGMBv0PjYFlIGcD-246">
          <mxGeometry x="596" y="900" width="100" height="50" as="geometry" />
        </mxCell>
        <mxCell id="-1BbnuGMBv0PjYFlIGcD-292" value="类别（手动抄表/系统采集）" style="ellipse;whiteSpace=wrap;html=1;align=center;fontStyle=4;rounded=0;sketch=0;fillColor=none;" vertex="1" parent="-1BbnuGMBv0PjYFlIGcD-246">
          <mxGeometry x="776" y="860" width="200" height="40" as="geometry" />
        </mxCell>
        <mxCell id="-1BbnuGMBv0PjYFlIGcD-293" style="rounded=0;orthogonalLoop=1;jettySize=auto;html=1;exitX=1;exitY=0.5;exitDx=0;exitDy=0;entryX=0;entryY=0.5;entryDx=0;entryDy=0;strokeColor=default;endArrow=none;endFill=0;" edge="1" parent="-1BbnuGMBv0PjYFlIGcD-246" source="-1BbnuGMBv0PjYFlIGcD-291" target="-1BbnuGMBv0PjYFlIGcD-292">
          <mxGeometry relative="1" as="geometry">
            <mxPoint x="526" y="-1229" as="sourcePoint" />
            <mxPoint x="588" y="-1380" as="targetPoint" />
          </mxGeometry>
        </mxCell>
        <mxCell id="-1BbnuGMBv0PjYFlIGcD-294" value="抄表时间" style="ellipse;whiteSpace=wrap;html=1;align=center;fontStyle=4;rounded=0;sketch=0;fillColor=none;" vertex="1" parent="-1BbnuGMBv0PjYFlIGcD-246">
          <mxGeometry x="800" y="910" width="100" height="40" as="geometry" />
        </mxCell>
        <mxCell id="-1BbnuGMBv0PjYFlIGcD-295" style="rounded=0;orthogonalLoop=1;jettySize=auto;html=1;exitX=1;exitY=0.5;exitDx=0;exitDy=0;strokeColor=default;endArrow=none;endFill=0;entryX=0;entryY=0.5;entryDx=0;entryDy=0;" edge="1" parent="-1BbnuGMBv0PjYFlIGcD-246" source="-1BbnuGMBv0PjYFlIGcD-291" target="-1BbnuGMBv0PjYFlIGcD-294">
          <mxGeometry relative="1" as="geometry">
            <mxPoint x="536" y="-1315" as="sourcePoint" />
            <mxPoint x="616" y="-1330" as="targetPoint" />
          </mxGeometry>
        </mxCell>
        <mxCell id="-1BbnuGMBv0PjYFlIGcD-296" value="抄表示数" style="ellipse;whiteSpace=wrap;html=1;align=center;fontStyle=4;rounded=0;sketch=0;fillColor=none;" vertex="1" parent="-1BbnuGMBv0PjYFlIGcD-246">
          <mxGeometry x="806" y="955" width="100" height="40" as="geometry" />
        </mxCell>
        <mxCell id="-1BbnuGMBv0PjYFlIGcD-297" style="rounded=0;orthogonalLoop=1;jettySize=auto;html=1;exitX=1;exitY=0.5;exitDx=0;exitDy=0;entryX=0.05;entryY=0.675;entryDx=0;entryDy=0;strokeColor=default;endArrow=none;endFill=0;entryPerimeter=0;" edge="1" parent="-1BbnuGMBv0PjYFlIGcD-246" source="-1BbnuGMBv0PjYFlIGcD-291" target="-1BbnuGMBv0PjYFlIGcD-296">
          <mxGeometry relative="1" as="geometry">
            <mxPoint x="526" y="-1205" as="sourcePoint" />
            <mxPoint x="636" y="-1310" as="targetPoint" />
          </mxGeometry>
        </mxCell>
        <mxCell id="-1BbnuGMBv0PjYFlIGcD-306" value="" style="endArrow=none;html=1;rounded=0;entryX=0.5;entryY=0;entryDx=0;entryDy=0;exitX=0.5;exitY=1;exitDx=0;exitDy=0;" edge="1" parent="-1BbnuGMBv0PjYFlIGcD-246" source="-1BbnuGMBv0PjYFlIGcD-275" target="-1BbnuGMBv0PjYFlIGcD-291">
          <mxGeometry width="50" height="50" relative="1" as="geometry">
            <mxPoint x="596" y="730" as="sourcePoint" />
            <mxPoint x="596" y="510" as="targetPoint" />
          </mxGeometry>
        </mxCell>
        <mxCell id="-1BbnuGMBv0PjYFlIGcD-307" value="1" style="edgeLabel;html=1;align=center;verticalAlign=middle;resizable=0;points=[];" vertex="1" connectable="0" parent="-1BbnuGMBv0PjYFlIGcD-306">
          <mxGeometry x="-0.7517" y="-3" relative="1" as="geometry">
            <mxPoint as="offset" />
          </mxGeometry>
        </mxCell>
        <mxCell id="-1BbnuGMBv0PjYFlIGcD-308" value="0..n" style="edgeLabel;html=1;align=center;verticalAlign=middle;resizable=0;points=[];" vertex="1" connectable="0" parent="-1BbnuGMBv0PjYFlIGcD-306">
          <mxGeometry x="0.7034" y="3" relative="1" as="geometry">
            <mxPoint as="offset" />
          </mxGeometry>
        </mxCell>
        <mxCell id="-1BbnuGMBv0PjYFlIGcD-309" value="名称" style="ellipse;whiteSpace=wrap;html=1;" vertex="1" parent="-1BbnuGMBv0PjYFlIGcD-246">
          <mxGeometry x="60" y="385.5" width="80" height="40" as="geometry" />
        </mxCell>
        <mxCell id="-1BbnuGMBv0PjYFlIGcD-310" value="" style="endArrow=none;html=1;rounded=0;entryX=0.5;entryY=1;entryDx=0;entryDy=0;exitX=0;exitY=0.5;exitDx=0;exitDy=0;" edge="1" parent="-1BbnuGMBv0PjYFlIGcD-246" source="-1BbnuGMBv0PjYFlIGcD-258" target="-1BbnuGMBv0PjYFlIGcD-309">
          <mxGeometry width="50" height="50" relative="1" as="geometry">
            <mxPoint x="250" y="465.5" as="sourcePoint" />
            <mxPoint x="650" y="40.5" as="targetPoint" />
          </mxGeometry>
        </mxCell>
        <mxCell id="-1BbnuGMBv0PjYFlIGcD-311" value="水表位置能耗统计记录" style="whiteSpace=wrap;html=1;align=center;rounded=0;sketch=0;fillColor=none;" vertex="1" parent="-1BbnuGMBv0PjYFlIGcD-246">
          <mxGeometry x="200" y="775" width="100" height="50" as="geometry" />
        </mxCell>
        <mxCell id="-1BbnuGMBv0PjYFlIGcD-312" value="" style="endArrow=none;html=1;rounded=0;entryX=0.5;entryY=0;entryDx=0;entryDy=0;exitX=0.5;exitY=1;exitDx=0;exitDy=0;" edge="1" parent="-1BbnuGMBv0PjYFlIGcD-246" source="-1BbnuGMBv0PjYFlIGcD-258" target="-1BbnuGMBv0PjYFlIGcD-311">
          <mxGeometry width="50" height="50" relative="1" as="geometry">
            <mxPoint x="380" y="485.5" as="sourcePoint" />
            <mxPoint x="596" y="469.5" as="targetPoint" />
          </mxGeometry>
        </mxCell>
        <mxCell id="-1BbnuGMBv0PjYFlIGcD-313" value="1" style="edgeLabel;html=1;align=center;verticalAlign=middle;resizable=0;points=[];" vertex="1" connectable="0" parent="-1BbnuGMBv0PjYFlIGcD-312">
          <mxGeometry x="-0.7517" y="-3" relative="1" as="geometry">
            <mxPoint as="offset" />
          </mxGeometry>
        </mxCell>
        <mxCell id="-1BbnuGMBv0PjYFlIGcD-314" value="0..n" style="edgeLabel;html=1;align=center;verticalAlign=middle;resizable=0;points=[];" vertex="1" connectable="0" parent="-1BbnuGMBv0PjYFlIGcD-312">
          <mxGeometry x="0.7034" y="3" relative="1" as="geometry">
            <mxPoint as="offset" />
          </mxGeometry>
        </mxCell>
        <mxCell id="-1BbnuGMBv0PjYFlIGcD-315" value="本次水表抄表记录id" style="ellipse;whiteSpace=wrap;html=1;align=center;fontStyle=4;rounded=0;sketch=0;fillColor=none;" vertex="1" parent="-1BbnuGMBv0PjYFlIGcD-246">
          <mxGeometry x="430" y="770" width="100" height="40" as="geometry" />
        </mxCell>
        <mxCell id="-1BbnuGMBv0PjYFlIGcD-316" value="上次水表抄表记录id" style="ellipse;whiteSpace=wrap;html=1;align=center;fontStyle=4;rounded=0;sketch=0;fillColor=none;" vertex="1" parent="-1BbnuGMBv0PjYFlIGcD-246">
          <mxGeometry x="440" y="830" width="100" height="40" as="geometry" />
        </mxCell>
        <mxCell id="-1BbnuGMBv0PjYFlIGcD-317" style="rounded=0;orthogonalLoop=1;jettySize=auto;html=1;entryX=0;entryY=0.5;entryDx=0;entryDy=0;strokeColor=default;endArrow=none;endFill=0;exitX=1;exitY=0.5;exitDx=0;exitDy=0;" edge="1" parent="-1BbnuGMBv0PjYFlIGcD-246" source="-1BbnuGMBv0PjYFlIGcD-311" target="-1BbnuGMBv0PjYFlIGcD-315">
          <mxGeometry relative="1" as="geometry">
            <mxPoint x="296" y="320" as="sourcePoint" />
            <mxPoint x="416" y="800" as="targetPoint" />
          </mxGeometry>
        </mxCell>
        <mxCell id="-1BbnuGMBv0PjYFlIGcD-318" style="rounded=0;orthogonalLoop=1;jettySize=auto;html=1;entryX=0;entryY=0.5;entryDx=0;entryDy=0;strokeColor=default;endArrow=none;endFill=0;exitX=1;exitY=0.5;exitDx=0;exitDy=0;" edge="1" parent="-1BbnuGMBv0PjYFlIGcD-246" source="-1BbnuGMBv0PjYFlIGcD-311" target="-1BbnuGMBv0PjYFlIGcD-316">
          <mxGeometry relative="1" as="geometry">
            <mxPoint x="296" y="320" as="sourcePoint" />
            <mxPoint x="416" y="860" as="targetPoint" />
          </mxGeometry>
        </mxCell>
        <mxCell id="-1BbnuGMBv0PjYFlIGcD-319" value="倍率" style="ellipse;whiteSpace=wrap;html=1;align=center;fontStyle=4;rounded=0;sketch=0;fillColor=none;" vertex="1" parent="-1BbnuGMBv0PjYFlIGcD-246">
          <mxGeometry x="430" y="880" width="100" height="40" as="geometry" />
        </mxCell>
        <mxCell id="-1BbnuGMBv0PjYFlIGcD-320" style="rounded=0;orthogonalLoop=1;jettySize=auto;html=1;entryX=0;entryY=0.5;entryDx=0;entryDy=0;strokeColor=default;endArrow=none;endFill=0;exitX=1;exitY=0.5;exitDx=0;exitDy=0;" edge="1" parent="-1BbnuGMBv0PjYFlIGcD-246" source="-1BbnuGMBv0PjYFlIGcD-311" target="-1BbnuGMBv0PjYFlIGcD-319">
          <mxGeometry relative="1" as="geometry">
            <mxPoint x="316" y="920" as="sourcePoint" />
            <mxPoint x="426" y="830" as="targetPoint" />
          </mxGeometry>
        </mxCell>
        <mxCell id="-1BbnuGMBv0PjYFlIGcD-321" value="用水量" style="ellipse;whiteSpace=wrap;html=1;align=center;fontStyle=4;rounded=0;sketch=0;fillColor=none;" vertex="1" parent="-1BbnuGMBv0PjYFlIGcD-246">
          <mxGeometry x="430" y="935" width="100" height="40" as="geometry" />
        </mxCell>
        <mxCell id="-1BbnuGMBv0PjYFlIGcD-322" style="rounded=0;orthogonalLoop=1;jettySize=auto;html=1;entryX=0;entryY=0.5;entryDx=0;entryDy=0;strokeColor=default;endArrow=none;endFill=0;exitX=1;exitY=0.5;exitDx=0;exitDy=0;" edge="1" parent="-1BbnuGMBv0PjYFlIGcD-246" source="-1BbnuGMBv0PjYFlIGcD-311" target="-1BbnuGMBv0PjYFlIGcD-321">
          <mxGeometry relative="1" as="geometry">
            <mxPoint x="316" y="920" as="sourcePoint" />
            <mxPoint x="416" y="920" as="targetPoint" />
          </mxGeometry>
        </mxCell>
        <mxCell id="-1BbnuGMBv0PjYFlIGcD-344" value="水费" style="ellipse;whiteSpace=wrap;html=1;align=center;fontStyle=4;rounded=0;sketch=0;fillColor=none;" vertex="1" parent="-1BbnuGMBv0PjYFlIGcD-246">
          <mxGeometry x="430" y="1020" width="100" height="40" as="geometry" />
        </mxCell>
        <mxCell id="-1BbnuGMBv0PjYFlIGcD-347" value="统计类别(按小时、日、月统计)" style="ellipse;whiteSpace=wrap;html=1;align=center;fontStyle=4;rounded=0;sketch=0;fillColor=none;" vertex="1" parent="-1BbnuGMBv0PjYFlIGcD-246">
          <mxGeometry x="360" y="710" width="215" height="40" as="geometry" />
        </mxCell>
        <mxCell id="-1BbnuGMBv0PjYFlIGcD-348" style="rounded=0;orthogonalLoop=1;jettySize=auto;html=1;entryX=0;entryY=0.5;entryDx=0;entryDy=0;strokeColor=default;endArrow=none;endFill=0;exitX=1;exitY=0.5;exitDx=0;exitDy=0;" edge="1" parent="-1BbnuGMBv0PjYFlIGcD-246" source="-1BbnuGMBv0PjYFlIGcD-311" target="-1BbnuGMBv0PjYFlIGcD-347">
          <mxGeometry relative="1" as="geometry">
            <mxPoint x="96" y="365" as="sourcePoint" />
            <mxPoint x="216" y="280" as="targetPoint" />
          </mxGeometry>
        </mxCell>
        <mxCell id="-1BbnuGMBv0PjYFlIGcD-349" value="统计时间" style="ellipse;whiteSpace=wrap;html=1;align=center;fontStyle=4;rounded=0;sketch=0;fillColor=none;" vertex="1" parent="-1BbnuGMBv0PjYFlIGcD-246">
          <mxGeometry x="380" y="620" width="100" height="40" as="geometry" />
        </mxCell>
        <mxCell id="-1BbnuGMBv0PjYFlIGcD-350" style="rounded=0;orthogonalLoop=1;jettySize=auto;html=1;entryX=0;entryY=0.5;entryDx=0;entryDy=0;strokeColor=default;endArrow=none;endFill=0;exitX=1;exitY=0.5;exitDx=0;exitDy=0;" edge="1" parent="-1BbnuGMBv0PjYFlIGcD-246" source="-1BbnuGMBv0PjYFlIGcD-311" target="-1BbnuGMBv0PjYFlIGcD-349">
          <mxGeometry relative="1" as="geometry">
            <mxPoint x="116" y="-181" as="sourcePoint" />
            <mxPoint x="202.5" y="100" as="targetPoint" />
          </mxGeometry>
        </mxCell>
        <mxCell id="-1BbnuGMBv0PjYFlIGcD-351" style="rounded=0;orthogonalLoop=1;jettySize=auto;html=1;strokeColor=default;endArrow=none;endFill=0;entryX=0;entryY=0.5;entryDx=0;entryDy=0;exitX=1;exitY=0.5;exitDx=0;exitDy=0;" edge="1" parent="-1BbnuGMBv0PjYFlIGcD-246" source="-1BbnuGMBv0PjYFlIGcD-311" target="-1BbnuGMBv0PjYFlIGcD-344">
          <mxGeometry relative="1" as="geometry">
            <mxPoint x="110" y="840" as="sourcePoint" />
            <mxPoint x="250" y="1290" as="targetPoint" />
          </mxGeometry>
        </mxCell>
        <mxCell id="-1BbnuGMBv0PjYFlIGcD-385" value="表位置分组" style="rounded=0;whiteSpace=wrap;html=1;" vertex="1" parent="1">
          <mxGeometry x="205" y="3690" width="120" height="50" as="geometry" />
        </mxCell>
        <mxCell id="-1BbnuGMBv0PjYFlIGcD-386" value="水表分组能耗统计记录" style="whiteSpace=wrap;html=1;align=center;rounded=0;sketch=0;fillColor=none;" vertex="1" parent="1">
          <mxGeometry x="200" y="3890" width="130" height="40" as="geometry" />
        </mxCell>
        <mxCell id="-1BbnuGMBv0PjYFlIGcD-387" style="rounded=0;orthogonalLoop=1;jettySize=auto;html=1;strokeColor=default;endArrow=none;endFill=0;entryX=0.5;entryY=1;entryDx=0;entryDy=0;" edge="1" parent="1" source="-1BbnuGMBv0PjYFlIGcD-386" target="-1BbnuGMBv0PjYFlIGcD-385">
          <mxGeometry relative="1" as="geometry">
            <mxPoint x="340" y="1395" as="sourcePoint" />
            <mxPoint x="240" y="1190" as="targetPoint" />
          </mxGeometry>
        </mxCell>
        <mxCell id="-1BbnuGMBv0PjYFlIGcD-388" value="1" style="edgeLabel;html=1;align=center;verticalAlign=middle;resizable=0;points=[];" vertex="1" connectable="0" parent="-1BbnuGMBv0PjYFlIGcD-387">
          <mxGeometry x="0.8125" y="-1" relative="1" as="geometry">
            <mxPoint as="offset" />
          </mxGeometry>
        </mxCell>
        <mxCell id="-1BbnuGMBv0PjYFlIGcD-389" value="0..n" style="edgeLabel;html=1;align=center;verticalAlign=middle;resizable=0;points=[];" vertex="1" connectable="0" parent="-1BbnuGMBv0PjYFlIGcD-387">
          <mxGeometry x="-0.8134" y="-4" relative="1" as="geometry">
            <mxPoint as="offset" />
          </mxGeometry>
        </mxCell>
        <mxCell id="-1BbnuGMBv0PjYFlIGcD-390" value="统计类别(按小时、日、月统计)" style="ellipse;whiteSpace=wrap;html=1;align=center;fontStyle=4;rounded=0;sketch=0;fillColor=none;" vertex="1" parent="1">
          <mxGeometry x="429" y="3860" width="215" height="40" as="geometry" />
        </mxCell>
        <mxCell id="-1BbnuGMBv0PjYFlIGcD-391" style="rounded=0;orthogonalLoop=1;jettySize=auto;html=1;strokeColor=default;endArrow=none;endFill=0;exitX=1;exitY=0.5;exitDx=0;exitDy=0;entryX=0;entryY=0.5;entryDx=0;entryDy=0;" edge="1" parent="1" source="-1BbnuGMBv0PjYFlIGcD-386" target="-1BbnuGMBv0PjYFlIGcD-390">
          <mxGeometry relative="1" as="geometry">
            <mxPoint x="300" y="1375" as="sourcePoint" />
            <mxPoint x="460" y="1270" as="targetPoint" />
          </mxGeometry>
        </mxCell>
        <mxCell id="-1BbnuGMBv0PjYFlIGcD-392" value="耗水量" style="ellipse;whiteSpace=wrap;html=1;align=center;fontStyle=4;rounded=0;sketch=0;fillColor=none;" vertex="1" parent="1">
          <mxGeometry x="445" y="3920" width="100" height="40" as="geometry" />
        </mxCell>
        <mxCell id="-1BbnuGMBv0PjYFlIGcD-393" style="rounded=0;orthogonalLoop=1;jettySize=auto;html=1;strokeColor=default;endArrow=none;endFill=0;exitX=1;exitY=0.5;exitDx=0;exitDy=0;entryX=0;entryY=0.5;entryDx=0;entryDy=0;" edge="1" parent="1" source="-1BbnuGMBv0PjYFlIGcD-386" target="-1BbnuGMBv0PjYFlIGcD-392">
          <mxGeometry relative="1" as="geometry">
            <mxPoint x="330" y="1465" as="sourcePoint" />
            <mxPoint x="435" y="1400" as="targetPoint" />
          </mxGeometry>
        </mxCell>
        <mxCell id="-1BbnuGMBv0PjYFlIGcD-394" value="统计时间" style="ellipse;whiteSpace=wrap;html=1;align=center;fontStyle=4;rounded=0;sketch=0;fillColor=none;" vertex="1" parent="1">
          <mxGeometry x="430" y="3800" width="100" height="40" as="geometry" />
        </mxCell>
        <mxCell id="-1BbnuGMBv0PjYFlIGcD-395" style="rounded=0;orthogonalLoop=1;jettySize=auto;html=1;strokeColor=default;endArrow=none;endFill=0;exitX=1;exitY=0.5;exitDx=0;exitDy=0;entryX=0;entryY=0.5;entryDx=0;entryDy=0;" edge="1" parent="1" source="-1BbnuGMBv0PjYFlIGcD-386" target="-1BbnuGMBv0PjYFlIGcD-394">
          <mxGeometry relative="1" as="geometry">
            <mxPoint x="330" y="875" as="sourcePoint" />
            <mxPoint x="450" y="1340" as="targetPoint" />
          </mxGeometry>
        </mxCell>
        <mxCell id="-1BbnuGMBv0PjYFlIGcD-396" value="水费" style="ellipse;whiteSpace=wrap;html=1;align=center;fontStyle=4;rounded=0;sketch=0;fillColor=none;" vertex="1" parent="1">
          <mxGeometry x="440" y="3980" width="100" height="40" as="geometry" />
        </mxCell>
        <mxCell id="-1BbnuGMBv0PjYFlIGcD-397" style="rounded=0;orthogonalLoop=1;jettySize=auto;html=1;strokeColor=default;endArrow=none;endFill=0;exitX=1;exitY=0.5;exitDx=0;exitDy=0;entryX=0;entryY=0.5;entryDx=0;entryDy=0;" edge="1" parent="1" source="-1BbnuGMBv0PjYFlIGcD-386" target="-1BbnuGMBv0PjYFlIGcD-396">
          <mxGeometry relative="1" as="geometry">
            <mxPoint x="310" y="1370" as="sourcePoint" />
            <mxPoint x="425" y="1400" as="targetPoint" />
          </mxGeometry>
        </mxCell>
        <mxCell id="-1BbnuGMBv0PjYFlIGcD-398" value="气表模块" style="swimlane;align=left;spacingLeft=20;container=1;" vertex="1" parent="1">
          <mxGeometry x="30" y="4380" width="1720" height="1120" as="geometry" />
        </mxCell>
        <mxCell id="-1BbnuGMBv0PjYFlIGcD-399" value="表位置绑定记录" style="rounded=0;whiteSpace=wrap;html=1;" vertex="1" parent="-1BbnuGMBv0PjYFlIGcD-398">
          <mxGeometry x="586" y="434.5" width="120" height="50" as="geometry" />
        </mxCell>
        <mxCell id="-1BbnuGMBv0PjYFlIGcD-400" value="设备id" style="ellipse;whiteSpace=wrap;html=1;" vertex="1" parent="-1BbnuGMBv0PjYFlIGcD-398">
          <mxGeometry x="275" y="195" width="70" height="40" as="geometry" />
        </mxCell>
        <mxCell id="-1BbnuGMBv0PjYFlIGcD-401" value="类型(气表、分类)" style="ellipse;whiteSpace=wrap;html=1;" vertex="1" parent="-1BbnuGMBv0PjYFlIGcD-398">
          <mxGeometry x="70" y="333" width="120" height="40" as="geometry" />
        </mxCell>
        <mxCell id="-1BbnuGMBv0PjYFlIGcD-402" value="种类&lt;br&gt;(氨气、氢气、氮气、压缩空气、其他)" style="ellipse;whiteSpace=wrap;html=1;" vertex="1" parent="-1BbnuGMBv0PjYFlIGcD-398">
          <mxGeometry x="100" y="275" width="120" height="50" as="geometry" />
        </mxCell>
        <mxCell id="-1BbnuGMBv0PjYFlIGcD-403" value="位置" style="ellipse;whiteSpace=wrap;html=1;" vertex="1" parent="-1BbnuGMBv0PjYFlIGcD-398">
          <mxGeometry x="200" y="220" width="80" height="40" as="geometry" />
        </mxCell>
        <mxCell id="-1BbnuGMBv0PjYFlIGcD-404" value="工段" style="ellipse;whiteSpace=wrap;html=1;" vertex="1" parent="-1BbnuGMBv0PjYFlIGcD-398">
          <mxGeometry x="360" y="195" width="70" height="40" as="geometry" />
        </mxCell>
        <mxCell id="-1BbnuGMBv0PjYFlIGcD-405" value="倍率" style="ellipse;whiteSpace=wrap;html=1;" vertex="1" parent="-1BbnuGMBv0PjYFlIGcD-398">
          <mxGeometry x="400" y="235" width="70" height="40" as="geometry" />
        </mxCell>
        <mxCell id="-1BbnuGMBv0PjYFlIGcD-406" value="备注" style="ellipse;whiteSpace=wrap;html=1;" vertex="1" parent="-1BbnuGMBv0PjYFlIGcD-398">
          <mxGeometry x="450" y="280" width="80" height="40" as="geometry" />
        </mxCell>
        <mxCell id="-1BbnuGMBv0PjYFlIGcD-407" value="父节点" style="ellipse;whiteSpace=wrap;html=1;" vertex="1" parent="-1BbnuGMBv0PjYFlIGcD-398">
          <mxGeometry x="470" y="320" width="80" height="40" as="geometry" />
        </mxCell>
        <mxCell id="-1BbnuGMBv0PjYFlIGcD-408" value="气表位置" style="rounded=0;whiteSpace=wrap;html=1;" vertex="1" parent="-1BbnuGMBv0PjYFlIGcD-398">
          <mxGeometry x="190" y="420" width="120" height="50" as="geometry" />
        </mxCell>
        <mxCell id="-1BbnuGMBv0PjYFlIGcD-409" value="" style="endArrow=none;html=1;rounded=0;exitX=0.5;exitY=0;exitDx=0;exitDy=0;" edge="1" parent="-1BbnuGMBv0PjYFlIGcD-398" source="-1BbnuGMBv0PjYFlIGcD-408" target="-1BbnuGMBv0PjYFlIGcD-402">
          <mxGeometry width="50" height="50" relative="1" as="geometry">
            <mxPoint x="190" y="35.5" as="sourcePoint" />
            <mxPoint x="350" y="-179.5" as="targetPoint" />
          </mxGeometry>
        </mxCell>
        <mxCell id="-1BbnuGMBv0PjYFlIGcD-410" value="" style="endArrow=none;html=1;rounded=0;entryX=0.5;entryY=1;entryDx=0;entryDy=0;exitX=0.5;exitY=0;exitDx=0;exitDy=0;" edge="1" parent="-1BbnuGMBv0PjYFlIGcD-398" source="-1BbnuGMBv0PjYFlIGcD-408" target="-1BbnuGMBv0PjYFlIGcD-403">
          <mxGeometry width="50" height="50" relative="1" as="geometry">
            <mxPoint x="190" y="35.5" as="sourcePoint" />
            <mxPoint x="350" y="-109.5" as="targetPoint" />
          </mxGeometry>
        </mxCell>
        <mxCell id="-1BbnuGMBv0PjYFlIGcD-411" value="" style="endArrow=none;html=1;rounded=0;entryX=0;entryY=1;entryDx=0;entryDy=0;exitX=0.5;exitY=0;exitDx=0;exitDy=0;" edge="1" parent="-1BbnuGMBv0PjYFlIGcD-398" source="-1BbnuGMBv0PjYFlIGcD-408" target="-1BbnuGMBv0PjYFlIGcD-404">
          <mxGeometry width="50" height="50" relative="1" as="geometry">
            <mxPoint x="310" y="440.5" as="sourcePoint" />
            <mxPoint x="360" y="-39.5" as="targetPoint" />
          </mxGeometry>
        </mxCell>
        <mxCell id="-1BbnuGMBv0PjYFlIGcD-412" value="" style="endArrow=none;html=1;rounded=0;exitX=0.5;exitY=0;exitDx=0;exitDy=0;entryX=0.058;entryY=0.8;entryDx=0;entryDy=0;entryPerimeter=0;" edge="1" parent="-1BbnuGMBv0PjYFlIGcD-398" source="-1BbnuGMBv0PjYFlIGcD-408" target="-1BbnuGMBv0PjYFlIGcD-405">
          <mxGeometry width="50" height="50" relative="1" as="geometry">
            <mxPoint x="190" y="35.5" as="sourcePoint" />
            <mxPoint x="360" y="10.5" as="targetPoint" />
          </mxGeometry>
        </mxCell>
        <mxCell id="-1BbnuGMBv0PjYFlIGcD-413" value="" style="endArrow=none;html=1;rounded=0;exitX=0.5;exitY=0;exitDx=0;exitDy=0;entryX=0;entryY=1;entryDx=0;entryDy=0;" edge="1" parent="-1BbnuGMBv0PjYFlIGcD-398" source="-1BbnuGMBv0PjYFlIGcD-408" target="-1BbnuGMBv0PjYFlIGcD-406">
          <mxGeometry width="50" height="50" relative="1" as="geometry">
            <mxPoint x="180" y="25.5" as="sourcePoint" />
            <mxPoint x="380" y="140.5" as="targetPoint" />
          </mxGeometry>
        </mxCell>
        <mxCell id="-1BbnuGMBv0PjYFlIGcD-414" value="" style="endArrow=none;html=1;rounded=0;entryX=0.5;entryY=1;entryDx=0;entryDy=0;exitX=0.5;exitY=0;exitDx=0;exitDy=0;" edge="1" parent="-1BbnuGMBv0PjYFlIGcD-398" source="-1BbnuGMBv0PjYFlIGcD-408" target="-1BbnuGMBv0PjYFlIGcD-407">
          <mxGeometry width="50" height="50" relative="1" as="geometry">
            <mxPoint x="190" y="35.5" as="sourcePoint" />
            <mxPoint x="370" y="110.5" as="targetPoint" />
          </mxGeometry>
        </mxCell>
        <mxCell id="-1BbnuGMBv0PjYFlIGcD-415" value="" style="endArrow=none;html=1;rounded=0;entryX=0.5;entryY=1;entryDx=0;entryDy=0;exitX=0.5;exitY=0;exitDx=0;exitDy=0;" edge="1" parent="-1BbnuGMBv0PjYFlIGcD-398" source="-1BbnuGMBv0PjYFlIGcD-408" target="-1BbnuGMBv0PjYFlIGcD-400">
          <mxGeometry width="50" height="50" relative="1" as="geometry">
            <mxPoint x="160" y="25.5" as="sourcePoint" />
            <mxPoint x="360" y="323" as="targetPoint" />
          </mxGeometry>
        </mxCell>
        <mxCell id="-1BbnuGMBv0PjYFlIGcD-416" value="" style="endArrow=none;html=1;rounded=0;entryX=0.5;entryY=1;entryDx=0;entryDy=0;exitX=0.5;exitY=0;exitDx=0;exitDy=0;" edge="1" parent="-1BbnuGMBv0PjYFlIGcD-398" source="-1BbnuGMBv0PjYFlIGcD-408" target="-1BbnuGMBv0PjYFlIGcD-401">
          <mxGeometry width="50" height="50" relative="1" as="geometry">
            <mxPoint x="150" y="20.5" as="sourcePoint" />
            <mxPoint x="350" y="-109.5" as="targetPoint" />
          </mxGeometry>
        </mxCell>
        <mxCell id="-1BbnuGMBv0PjYFlIGcD-417" value="" style="endArrow=none;html=1;rounded=0;entryX=0;entryY=0.5;entryDx=0;entryDy=0;exitX=1;exitY=0.5;exitDx=0;exitDy=0;" edge="1" parent="-1BbnuGMBv0PjYFlIGcD-398" source="-1BbnuGMBv0PjYFlIGcD-408" target="-1BbnuGMBv0PjYFlIGcD-399">
          <mxGeometry width="50" height="50" relative="1" as="geometry">
            <mxPoint x="230" y="515" as="sourcePoint" />
            <mxPoint x="360" y="460" as="targetPoint" />
          </mxGeometry>
        </mxCell>
        <mxCell id="-1BbnuGMBv0PjYFlIGcD-418" value="1" style="edgeLabel;html=1;align=center;verticalAlign=middle;resizable=0;points=[];" vertex="1" connectable="0" parent="-1BbnuGMBv0PjYFlIGcD-417">
          <mxGeometry x="-0.7517" y="-3" relative="1" as="geometry">
            <mxPoint as="offset" />
          </mxGeometry>
        </mxCell>
        <mxCell id="-1BbnuGMBv0PjYFlIGcD-419" value="0..n" style="edgeLabel;html=1;align=center;verticalAlign=middle;resizable=0;points=[];" vertex="1" connectable="0" parent="-1BbnuGMBv0PjYFlIGcD-417">
          <mxGeometry x="0.7034" y="3" relative="1" as="geometry">
            <mxPoint as="offset" />
          </mxGeometry>
        </mxCell>
        <mxCell id="-1BbnuGMBv0PjYFlIGcD-420" value="在线状态" style="ellipse;whiteSpace=wrap;html=1;" vertex="1" parent="-1BbnuGMBv0PjYFlIGcD-398">
          <mxGeometry x="811" y="790" width="120" height="40" as="geometry" />
        </mxCell>
        <mxCell id="-1BbnuGMBv0PjYFlIGcD-421" value="种类&lt;br&gt;(氨气、氢气、氮气、压缩空气、其他)" style="ellipse;whiteSpace=wrap;html=1;" vertex="1" parent="-1BbnuGMBv0PjYFlIGcD-398">
          <mxGeometry x="816" y="740" width="120" height="40" as="geometry" />
        </mxCell>
        <mxCell id="-1BbnuGMBv0PjYFlIGcD-422" value="倍率" style="ellipse;whiteSpace=wrap;html=1;" vertex="1" parent="-1BbnuGMBv0PjYFlIGcD-398">
          <mxGeometry x="816" y="690" width="120" height="40" as="geometry" />
        </mxCell>
        <mxCell id="-1BbnuGMBv0PjYFlIGcD-423" value="名称" style="ellipse;whiteSpace=wrap;html=1;" vertex="1" parent="-1BbnuGMBv0PjYFlIGcD-398">
          <mxGeometry x="780" y="580" width="120" height="40" as="geometry" />
        </mxCell>
        <mxCell id="-1BbnuGMBv0PjYFlIGcD-424" value="编号" style="ellipse;whiteSpace=wrap;html=1;" vertex="1" parent="-1BbnuGMBv0PjYFlIGcD-398">
          <mxGeometry x="816" y="640" width="110" height="40" as="geometry" />
        </mxCell>
        <mxCell id="-1BbnuGMBv0PjYFlIGcD-425" value="气表" style="rounded=0;whiteSpace=wrap;html=1;" vertex="1" parent="-1BbnuGMBv0PjYFlIGcD-398">
          <mxGeometry x="586" y="620" width="120" height="50" as="geometry" />
        </mxCell>
        <mxCell id="-1BbnuGMBv0PjYFlIGcD-426" value="" style="endArrow=none;html=1;rounded=0;entryX=0;entryY=0.5;entryDx=0;entryDy=0;exitX=1;exitY=0.5;exitDx=0;exitDy=0;" edge="1" parent="-1BbnuGMBv0PjYFlIGcD-398" source="-1BbnuGMBv0PjYFlIGcD-425" target="-1BbnuGMBv0PjYFlIGcD-420">
          <mxGeometry width="50" height="50" relative="1" as="geometry">
            <mxPoint x="696" y="175" as="sourcePoint" />
            <mxPoint x="766" y="210" as="targetPoint" />
          </mxGeometry>
        </mxCell>
        <mxCell id="-1BbnuGMBv0PjYFlIGcD-427" value="" style="endArrow=none;html=1;rounded=0;exitX=1;exitY=0.5;exitDx=0;exitDy=0;entryX=0;entryY=0.5;entryDx=0;entryDy=0;" edge="1" parent="-1BbnuGMBv0PjYFlIGcD-398" source="-1BbnuGMBv0PjYFlIGcD-425" target="-1BbnuGMBv0PjYFlIGcD-421">
          <mxGeometry width="50" height="50" relative="1" as="geometry">
            <mxPoint x="696" y="175" as="sourcePoint" />
            <mxPoint x="766" y="270" as="targetPoint" />
          </mxGeometry>
        </mxCell>
        <mxCell id="-1BbnuGMBv0PjYFlIGcD-428" value="" style="endArrow=none;html=1;rounded=0;entryX=0;entryY=0.5;entryDx=0;entryDy=0;exitX=1;exitY=0.5;exitDx=0;exitDy=0;" edge="1" parent="-1BbnuGMBv0PjYFlIGcD-398" source="-1BbnuGMBv0PjYFlIGcD-425" target="-1BbnuGMBv0PjYFlIGcD-422">
          <mxGeometry width="50" height="50" relative="1" as="geometry">
            <mxPoint x="696" y="175" as="sourcePoint" />
            <mxPoint x="766" y="140" as="targetPoint" />
          </mxGeometry>
        </mxCell>
        <mxCell id="-1BbnuGMBv0PjYFlIGcD-429" value="" style="endArrow=none;html=1;rounded=0;entryX=0;entryY=0.5;entryDx=0;entryDy=0;exitX=1;exitY=0.5;exitDx=0;exitDy=0;" edge="1" parent="-1BbnuGMBv0PjYFlIGcD-398" source="-1BbnuGMBv0PjYFlIGcD-425" target="-1BbnuGMBv0PjYFlIGcD-424">
          <mxGeometry width="50" height="50" relative="1" as="geometry">
            <mxPoint x="696" y="175" as="sourcePoint" />
            <mxPoint x="766" y="80" as="targetPoint" />
          </mxGeometry>
        </mxCell>
        <mxCell id="-1BbnuGMBv0PjYFlIGcD-430" value="" style="endArrow=none;html=1;rounded=0;entryX=0;entryY=0.5;entryDx=0;entryDy=0;exitX=1;exitY=0.5;exitDx=0;exitDy=0;" edge="1" parent="-1BbnuGMBv0PjYFlIGcD-398" source="-1BbnuGMBv0PjYFlIGcD-425" target="-1BbnuGMBv0PjYFlIGcD-423">
          <mxGeometry width="50" height="50" relative="1" as="geometry">
            <mxPoint x="686" y="165" as="sourcePoint" />
            <mxPoint x="766" y="30" as="targetPoint" />
          </mxGeometry>
        </mxCell>
        <mxCell id="-1BbnuGMBv0PjYFlIGcD-431" value="" style="endArrow=none;html=1;rounded=0;entryX=0.5;entryY=1;entryDx=0;entryDy=0;exitX=0.5;exitY=0;exitDx=0;exitDy=0;" edge="1" parent="-1BbnuGMBv0PjYFlIGcD-398" source="-1BbnuGMBv0PjYFlIGcD-425" target="-1BbnuGMBv0PjYFlIGcD-399">
          <mxGeometry width="50" height="50" relative="1" as="geometry">
            <mxPoint x="230" y="315" as="sourcePoint" />
            <mxPoint x="500" y="325" as="targetPoint" />
          </mxGeometry>
        </mxCell>
        <mxCell id="-1BbnuGMBv0PjYFlIGcD-432" value="1" style="edgeLabel;html=1;align=center;verticalAlign=middle;resizable=0;points=[];" vertex="1" connectable="0" parent="-1BbnuGMBv0PjYFlIGcD-431">
          <mxGeometry x="-0.7517" y="-3" relative="1" as="geometry">
            <mxPoint as="offset" />
          </mxGeometry>
        </mxCell>
        <mxCell id="-1BbnuGMBv0PjYFlIGcD-433" value="0..n" style="edgeLabel;html=1;align=center;verticalAlign=middle;resizable=0;points=[];" vertex="1" connectable="0" parent="-1BbnuGMBv0PjYFlIGcD-431">
          <mxGeometry x="0.7034" y="3" relative="1" as="geometry">
            <mxPoint as="offset" />
          </mxGeometry>
        </mxCell>
        <mxCell id="-1BbnuGMBv0PjYFlIGcD-434" value="气表抄表记录" style="whiteSpace=wrap;html=1;align=center;rounded=0;sketch=0;fillColor=none;" vertex="1" parent="-1BbnuGMBv0PjYFlIGcD-398">
          <mxGeometry x="596" y="900" width="100" height="50" as="geometry" />
        </mxCell>
        <mxCell id="-1BbnuGMBv0PjYFlIGcD-435" value="类别（手动抄表/系统采集）" style="ellipse;whiteSpace=wrap;html=1;align=center;fontStyle=4;rounded=0;sketch=0;fillColor=none;" vertex="1" parent="-1BbnuGMBv0PjYFlIGcD-398">
          <mxGeometry x="776" y="860" width="200" height="40" as="geometry" />
        </mxCell>
        <mxCell id="-1BbnuGMBv0PjYFlIGcD-436" style="rounded=0;orthogonalLoop=1;jettySize=auto;html=1;exitX=1;exitY=0.5;exitDx=0;exitDy=0;entryX=0;entryY=0.5;entryDx=0;entryDy=0;strokeColor=default;endArrow=none;endFill=0;" edge="1" parent="-1BbnuGMBv0PjYFlIGcD-398" source="-1BbnuGMBv0PjYFlIGcD-434" target="-1BbnuGMBv0PjYFlIGcD-435">
          <mxGeometry relative="1" as="geometry">
            <mxPoint x="526" y="-1229" as="sourcePoint" />
            <mxPoint x="588" y="-1380" as="targetPoint" />
          </mxGeometry>
        </mxCell>
        <mxCell id="-1BbnuGMBv0PjYFlIGcD-437" value="抄表时间" style="ellipse;whiteSpace=wrap;html=1;align=center;fontStyle=4;rounded=0;sketch=0;fillColor=none;" vertex="1" parent="-1BbnuGMBv0PjYFlIGcD-398">
          <mxGeometry x="800" y="910" width="100" height="40" as="geometry" />
        </mxCell>
        <mxCell id="-1BbnuGMBv0PjYFlIGcD-438" style="rounded=0;orthogonalLoop=1;jettySize=auto;html=1;exitX=1;exitY=0.5;exitDx=0;exitDy=0;strokeColor=default;endArrow=none;endFill=0;entryX=0;entryY=0.5;entryDx=0;entryDy=0;" edge="1" parent="-1BbnuGMBv0PjYFlIGcD-398" source="-1BbnuGMBv0PjYFlIGcD-434" target="-1BbnuGMBv0PjYFlIGcD-437">
          <mxGeometry relative="1" as="geometry">
            <mxPoint x="536" y="-1315" as="sourcePoint" />
            <mxPoint x="616" y="-1330" as="targetPoint" />
          </mxGeometry>
        </mxCell>
        <mxCell id="-1BbnuGMBv0PjYFlIGcD-439" value="抄表示数" style="ellipse;whiteSpace=wrap;html=1;align=center;fontStyle=4;rounded=0;sketch=0;fillColor=none;" vertex="1" parent="-1BbnuGMBv0PjYFlIGcD-398">
          <mxGeometry x="806" y="955" width="100" height="40" as="geometry" />
        </mxCell>
        <mxCell id="-1BbnuGMBv0PjYFlIGcD-440" style="rounded=0;orthogonalLoop=1;jettySize=auto;html=1;exitX=1;exitY=0.5;exitDx=0;exitDy=0;entryX=0.05;entryY=0.675;entryDx=0;entryDy=0;strokeColor=default;endArrow=none;endFill=0;entryPerimeter=0;" edge="1" parent="-1BbnuGMBv0PjYFlIGcD-398" source="-1BbnuGMBv0PjYFlIGcD-434" target="-1BbnuGMBv0PjYFlIGcD-439">
          <mxGeometry relative="1" as="geometry">
            <mxPoint x="526" y="-1205" as="sourcePoint" />
            <mxPoint x="636" y="-1310" as="targetPoint" />
          </mxGeometry>
        </mxCell>
        <mxCell id="-1BbnuGMBv0PjYFlIGcD-441" value="" style="endArrow=none;html=1;rounded=0;entryX=0.5;entryY=0;entryDx=0;entryDy=0;exitX=0.5;exitY=1;exitDx=0;exitDy=0;" edge="1" parent="-1BbnuGMBv0PjYFlIGcD-398" source="-1BbnuGMBv0PjYFlIGcD-425" target="-1BbnuGMBv0PjYFlIGcD-434">
          <mxGeometry width="50" height="50" relative="1" as="geometry">
            <mxPoint x="596" y="730" as="sourcePoint" />
            <mxPoint x="596" y="510" as="targetPoint" />
          </mxGeometry>
        </mxCell>
        <mxCell id="-1BbnuGMBv0PjYFlIGcD-442" value="1" style="edgeLabel;html=1;align=center;verticalAlign=middle;resizable=0;points=[];" vertex="1" connectable="0" parent="-1BbnuGMBv0PjYFlIGcD-441">
          <mxGeometry x="-0.7517" y="-3" relative="1" as="geometry">
            <mxPoint as="offset" />
          </mxGeometry>
        </mxCell>
        <mxCell id="-1BbnuGMBv0PjYFlIGcD-443" value="0..n" style="edgeLabel;html=1;align=center;verticalAlign=middle;resizable=0;points=[];" vertex="1" connectable="0" parent="-1BbnuGMBv0PjYFlIGcD-441">
          <mxGeometry x="0.7034" y="3" relative="1" as="geometry">
            <mxPoint as="offset" />
          </mxGeometry>
        </mxCell>
        <mxCell id="-1BbnuGMBv0PjYFlIGcD-444" value="名称" style="ellipse;whiteSpace=wrap;html=1;" vertex="1" parent="-1BbnuGMBv0PjYFlIGcD-398">
          <mxGeometry x="60" y="385.5" width="80" height="40" as="geometry" />
        </mxCell>
        <mxCell id="-1BbnuGMBv0PjYFlIGcD-445" value="" style="endArrow=none;html=1;rounded=0;entryX=0.5;entryY=1;entryDx=0;entryDy=0;exitX=0;exitY=0.5;exitDx=0;exitDy=0;" edge="1" parent="-1BbnuGMBv0PjYFlIGcD-398" source="-1BbnuGMBv0PjYFlIGcD-408" target="-1BbnuGMBv0PjYFlIGcD-444">
          <mxGeometry width="50" height="50" relative="1" as="geometry">
            <mxPoint x="250" y="465.5" as="sourcePoint" />
            <mxPoint x="650" y="40.5" as="targetPoint" />
          </mxGeometry>
        </mxCell>
        <mxCell id="-1BbnuGMBv0PjYFlIGcD-446" value="气表位置能耗统计记录" style="whiteSpace=wrap;html=1;align=center;rounded=0;sketch=0;fillColor=none;" vertex="1" parent="-1BbnuGMBv0PjYFlIGcD-398">
          <mxGeometry x="200" y="775" width="100" height="50" as="geometry" />
        </mxCell>
        <mxCell id="-1BbnuGMBv0PjYFlIGcD-447" value="" style="endArrow=none;html=1;rounded=0;entryX=0.5;entryY=0;entryDx=0;entryDy=0;exitX=0.5;exitY=1;exitDx=0;exitDy=0;" edge="1" parent="-1BbnuGMBv0PjYFlIGcD-398" source="-1BbnuGMBv0PjYFlIGcD-408" target="-1BbnuGMBv0PjYFlIGcD-446">
          <mxGeometry width="50" height="50" relative="1" as="geometry">
            <mxPoint x="380" y="485.5" as="sourcePoint" />
            <mxPoint x="596" y="469.5" as="targetPoint" />
          </mxGeometry>
        </mxCell>
        <mxCell id="-1BbnuGMBv0PjYFlIGcD-448" value="1" style="edgeLabel;html=1;align=center;verticalAlign=middle;resizable=0;points=[];" vertex="1" connectable="0" parent="-1BbnuGMBv0PjYFlIGcD-447">
          <mxGeometry x="-0.7517" y="-3" relative="1" as="geometry">
            <mxPoint as="offset" />
          </mxGeometry>
        </mxCell>
        <mxCell id="-1BbnuGMBv0PjYFlIGcD-449" value="0..n" style="edgeLabel;html=1;align=center;verticalAlign=middle;resizable=0;points=[];" vertex="1" connectable="0" parent="-1BbnuGMBv0PjYFlIGcD-447">
          <mxGeometry x="0.7034" y="3" relative="1" as="geometry">
            <mxPoint as="offset" />
          </mxGeometry>
        </mxCell>
        <mxCell id="-1BbnuGMBv0PjYFlIGcD-450" value="本次气表抄表记录id" style="ellipse;whiteSpace=wrap;html=1;align=center;fontStyle=4;rounded=0;sketch=0;fillColor=none;" vertex="1" parent="-1BbnuGMBv0PjYFlIGcD-398">
          <mxGeometry x="430" y="770" width="100" height="40" as="geometry" />
        </mxCell>
        <mxCell id="-1BbnuGMBv0PjYFlIGcD-451" value="上次气表抄表记录id" style="ellipse;whiteSpace=wrap;html=1;align=center;fontStyle=4;rounded=0;sketch=0;fillColor=none;" vertex="1" parent="-1BbnuGMBv0PjYFlIGcD-398">
          <mxGeometry x="440" y="830" width="100" height="40" as="geometry" />
        </mxCell>
        <mxCell id="-1BbnuGMBv0PjYFlIGcD-452" style="rounded=0;orthogonalLoop=1;jettySize=auto;html=1;entryX=0;entryY=0.5;entryDx=0;entryDy=0;strokeColor=default;endArrow=none;endFill=0;exitX=1;exitY=0.5;exitDx=0;exitDy=0;" edge="1" parent="-1BbnuGMBv0PjYFlIGcD-398" source="-1BbnuGMBv0PjYFlIGcD-446" target="-1BbnuGMBv0PjYFlIGcD-450">
          <mxGeometry relative="1" as="geometry">
            <mxPoint x="296" y="320" as="sourcePoint" />
            <mxPoint x="416" y="800" as="targetPoint" />
          </mxGeometry>
        </mxCell>
        <mxCell id="-1BbnuGMBv0PjYFlIGcD-453" style="rounded=0;orthogonalLoop=1;jettySize=auto;html=1;entryX=0;entryY=0.5;entryDx=0;entryDy=0;strokeColor=default;endArrow=none;endFill=0;exitX=1;exitY=0.5;exitDx=0;exitDy=0;" edge="1" parent="-1BbnuGMBv0PjYFlIGcD-398" source="-1BbnuGMBv0PjYFlIGcD-446" target="-1BbnuGMBv0PjYFlIGcD-451">
          <mxGeometry relative="1" as="geometry">
            <mxPoint x="296" y="320" as="sourcePoint" />
            <mxPoint x="416" y="860" as="targetPoint" />
          </mxGeometry>
        </mxCell>
        <mxCell id="-1BbnuGMBv0PjYFlIGcD-454" value="倍率" style="ellipse;whiteSpace=wrap;html=1;align=center;fontStyle=4;rounded=0;sketch=0;fillColor=none;" vertex="1" parent="-1BbnuGMBv0PjYFlIGcD-398">
          <mxGeometry x="430" y="880" width="100" height="40" as="geometry" />
        </mxCell>
        <mxCell id="-1BbnuGMBv0PjYFlIGcD-455" style="rounded=0;orthogonalLoop=1;jettySize=auto;html=1;entryX=0;entryY=0.5;entryDx=0;entryDy=0;strokeColor=default;endArrow=none;endFill=0;exitX=1;exitY=0.5;exitDx=0;exitDy=0;" edge="1" parent="-1BbnuGMBv0PjYFlIGcD-398" source="-1BbnuGMBv0PjYFlIGcD-446" target="-1BbnuGMBv0PjYFlIGcD-454">
          <mxGeometry relative="1" as="geometry">
            <mxPoint x="316" y="920" as="sourcePoint" />
            <mxPoint x="426" y="830" as="targetPoint" />
          </mxGeometry>
        </mxCell>
        <mxCell id="-1BbnuGMBv0PjYFlIGcD-456" value="用气量" style="ellipse;whiteSpace=wrap;html=1;align=center;fontStyle=4;rounded=0;sketch=0;fillColor=none;" vertex="1" parent="-1BbnuGMBv0PjYFlIGcD-398">
          <mxGeometry x="430" y="935" width="100" height="40" as="geometry" />
        </mxCell>
        <mxCell id="-1BbnuGMBv0PjYFlIGcD-457" style="rounded=0;orthogonalLoop=1;jettySize=auto;html=1;entryX=0;entryY=0.5;entryDx=0;entryDy=0;strokeColor=default;endArrow=none;endFill=0;exitX=1;exitY=0.5;exitDx=0;exitDy=0;" edge="1" parent="-1BbnuGMBv0PjYFlIGcD-398" source="-1BbnuGMBv0PjYFlIGcD-446" target="-1BbnuGMBv0PjYFlIGcD-456">
          <mxGeometry relative="1" as="geometry">
            <mxPoint x="316" y="920" as="sourcePoint" />
            <mxPoint x="416" y="920" as="targetPoint" />
          </mxGeometry>
        </mxCell>
        <mxCell id="-1BbnuGMBv0PjYFlIGcD-459" value="统计类别(按小时、日、月统计)" style="ellipse;whiteSpace=wrap;html=1;align=center;fontStyle=4;rounded=0;sketch=0;fillColor=none;" vertex="1" parent="-1BbnuGMBv0PjYFlIGcD-398">
          <mxGeometry x="360" y="710" width="215" height="40" as="geometry" />
        </mxCell>
        <mxCell id="-1BbnuGMBv0PjYFlIGcD-460" style="rounded=0;orthogonalLoop=1;jettySize=auto;html=1;entryX=0;entryY=0.5;entryDx=0;entryDy=0;strokeColor=default;endArrow=none;endFill=0;exitX=1;exitY=0.5;exitDx=0;exitDy=0;" edge="1" parent="-1BbnuGMBv0PjYFlIGcD-398" source="-1BbnuGMBv0PjYFlIGcD-446" target="-1BbnuGMBv0PjYFlIGcD-459">
          <mxGeometry relative="1" as="geometry">
            <mxPoint x="96" y="365" as="sourcePoint" />
            <mxPoint x="216" y="280" as="targetPoint" />
          </mxGeometry>
        </mxCell>
        <mxCell id="-1BbnuGMBv0PjYFlIGcD-461" value="统计时间" style="ellipse;whiteSpace=wrap;html=1;align=center;fontStyle=4;rounded=0;sketch=0;fillColor=none;" vertex="1" parent="-1BbnuGMBv0PjYFlIGcD-398">
          <mxGeometry x="380" y="620" width="100" height="40" as="geometry" />
        </mxCell>
        <mxCell id="-1BbnuGMBv0PjYFlIGcD-462" style="rounded=0;orthogonalLoop=1;jettySize=auto;html=1;entryX=0;entryY=0.5;entryDx=0;entryDy=0;strokeColor=default;endArrow=none;endFill=0;exitX=1;exitY=0.5;exitDx=0;exitDy=0;" edge="1" parent="-1BbnuGMBv0PjYFlIGcD-398" source="-1BbnuGMBv0PjYFlIGcD-446" target="-1BbnuGMBv0PjYFlIGcD-461">
          <mxGeometry relative="1" as="geometry">
            <mxPoint x="116" y="-181" as="sourcePoint" />
            <mxPoint x="202.5" y="100" as="targetPoint" />
          </mxGeometry>
        </mxCell>
      </root>
    </mxGraphModel>
  </diagram>
</mxfile>
